<?xml version="1.0" encoding="utf-8"?>
<!-- Generator: Adobe Illustrator 28.4.1, SVG Export Plug-In . SVG Version: 6.00 Build 0)  -->
<svg version="1.1" id="Layer_1" xmlns="http://www.w3.org/2000/svg" xmlns:xlink="http://www.w3.org/1999/xlink" x="0px" y="0px"
	 viewBox="0 0 835.5 104.2" style="enable-background:new 0 0 835.5 104.2;" xml:space="preserve">
<style type="text/css">
	.st0{fill:#242938;}
	.st1{fill:#FFFFFF;}
	.st2{fill:#265787;}
	.st3{fill:#EA7600;}
	.st4{fill:url(#SVGID_1_);}
	.st5{fill:url(#SVGID_00000096025805448587175400000007326307857741374383_);}
	.st6{fill:none;stroke:#FFFFFF;stroke-width:0.375;stroke-miterlimit:10;}
	.st7{fill:#0277BD;}
	.st8{fill:#EBEBEB;}
	.st9{fill:#FFFFFF;filter:url(#Adobe_OpacityMaskFilter);}
	.st10{mask:url(#mask0_147_896_00000077305358443385902540000016304937902392304006_);}
	.st11{fill:url(#SVGID_00000115487994498151505190000014303959732206524805_);}
	.st12{fill:#FFA000;}
	.st13{fill:none;}
	.st14{fill:#F57C00;}
	.st15{fill:#FFCA28;}
	.st16{fill:#FFFFFF;fill-opacity:0.2;}
	.st17{opacity:0.2;fill:#A52714;enable-background:new    ;}
	.st18{fill:url(#SVGID_00000114070969958287876380000012262393446197673621_);}
	.st19{fill:#F03C2E;}
	.st20{clip-path:url(#SVGID_00000054229034419718888530000015457126041776239510_);}
	.st21{fill:#E24329;}
	.st22{fill:#FC6D26;}
	.st23{fill:#FCA326;}
	.st24{fill:#FBC707;}
	.st25{fill:#F68712;}
	.st26{fill:#F25C19;}
	.st27{fill:#FFF200;}
	.st28{fill:#F1471D;}
	.st29{fill:#FAB20B;}
	.st30{fill:#F47216;}
	.st31{fill:#F89C0E;}
	.st32{fill:#E14E1D;}
	.st33{fill:#F0DB4F;}
	.st34{fill:#323330;}
	.st35{clip-path:url(#SVGID_00000148663571250798765690000007919035676579020213_);}
	.st36{fill-rule:evenodd;clip-rule:evenodd;fill:#D33833;}
	.st37{fill:#EF3D3A;}
	.st38{fill:#231F20;}
	.st39{fill-rule:evenodd;clip-rule:evenodd;fill:#F0D6B7;}
	.st40{fill-rule:evenodd;clip-rule:evenodd;fill:#335061;}
	.st41{fill-rule:evenodd;clip-rule:evenodd;fill:#6D6B6D;}
	.st42{fill-rule:evenodd;clip-rule:evenodd;fill:#DCD9D8;}
	.st43{fill-rule:evenodd;clip-rule:evenodd;fill:#F7E4CD;}
	.st44{fill:#F7E4CD;}
	.st45{fill-rule:evenodd;clip-rule:evenodd;fill:#49728B;}
	.st46{fill-rule:evenodd;clip-rule:evenodd;fill:#FFFFFF;}
	.st47{fill:none;stroke:#D33833;stroke-width:0.4688;stroke-miterlimit:10;}
	.st48{fill-rule:evenodd;clip-rule:evenodd;fill:#EF3D3A;}
	.st49{fill-rule:evenodd;clip-rule:evenodd;fill:#231F20;}
	.st50{fill-rule:evenodd;clip-rule:evenodd;fill:#81B0C4;}
	.st51{fill-rule:evenodd;clip-rule:evenodd;fill:#1D1919;}
	.st52{fill:#99424F;}
	.st53{fill-rule:evenodd;clip-rule:evenodd;fill:#007FFF;}
	.st54{fill:#023430;}
	.st55{fill:#10AA50;}
	.st56{fill:#B8C4C2;}
	.st57{fill:#12924F;}
	.st58{fill:#E0234E;}
	.st59{fill:#81CD39;}
	.st60{clip-path:url(#SVGID_00000158004316274165293600000017438961784095634827_);}
	.st61{clip-path:url(#SVGID_00000060740390845022453520000001044349210072912797_);}
	.st62{fill:#CB3837;}
	.st63{fill:#FF6C37;}
	.st64{fill:#EEEEEE;}
	.st65{fill:#00D8FF;}
	.st66{fill:none;stroke:#00D8FF;stroke-width:1.6708;stroke-miterlimit:10;}
	.st67{fill:#764ABC;}
	.st68{fill:url(#SVGID_00000067947667452115374520000010561119403671425451_);}
	.st69{fill:url(#SVGID_00000030449360315472771630000012027427169050352558_);}
	.st70{fill:url(#SVGID_00000141420172754261950420000006465450551624843958_);}
	.st71{fill:url(#SVGID_00000013182387360170151320000018381003040217386136_);}
	.st72{fill:url(#SVGID_00000148660285827405879190000003950758479931863710_);}
	.st73{opacity:0.3;fill:url(#SVGID_00000179615668366890668170000002527914211828721028_);enable-background:new    ;}
	.st74{fill-rule:evenodd;clip-rule:evenodd;fill:url(#SVGID_00000120518223639036729650000004757529333276775313_);}
	.st75{fill:none;stroke:#FFFFFF;stroke-width:0.75;stroke-linejoin:round;stroke-miterlimit:1.875;}
	.st76{fill:#007ACC;}
	.st77{fill:#CCCCCC;}
	.st78{fill:#A6A6A6;}
	.st79{fill:url(#SVGID_00000063592502346915913490000001098389126820504207_);}
	.st80{fill:url(#SVGID_00000024689451499379897830000011034365495313080472_);}
	.st81{fill:#8ED6FB;}
	.st82{fill:#1C78C0;}
	.st83{clip-path:url(#SVGID_00000134948027458966925050000012511975291076970941_);}
	.st84{clip-path:url(#SVGID_00000106829026630796155510000002378263981356291508_);}
	.st85{fill:#3398C2;}
	.st86{fill:#FEFEFE;}
	.st87{fill:#3298C3;}
	.st88{fill:#2B95C1;}
	.st89{fill:#2693BF;}
	.st90{clip-path:url(#SVGID_00000170259834680634744160000012418477203117758351_);}
	.st91{fill:#E72264;}
	.st92{clip-path:url(#SVGID_00000009586977472754141720000018128645287382768533_);}
	.st93{opacity:0.15;fill:#1D1D1B;fill-opacity:0.5;enable-background:new    ;}
	.st94{opacity:5.000000e-02;}
	.st95{opacity:0.5;fill-opacity:0.5;enable-background:new    ;}
	.st96{fill-opacity:0.5;}
</style>
<g transform="translate(0, 0)">
	<path class="st0" d="M11.2,0h25.5C43,0,48,5,48,11.2v25.5C48,43,43,48,36.8,48H11.2C5,48,0,43,0,36.8V11.2C0,5,5,0,11.2,0z"/>
	<path class="st1" d="M19.8,25.7c0.1-2.6,1.4-4.9,3.3-6.5c1.9-1.6,4.4-2.6,7.2-2.6c2.8,0,5.3,1,7.2,2.6c1.9,1.6,3.2,3.9,3.3,6.5
		c0.1,2.7-0.9,5.2-2.8,7c-1.9,1.9-4.6,3-7.7,3s-5.8-1.2-7.7-3C20.7,30.9,19.6,28.4,19.8,25.7L19.8,25.7z"/>
	<path class="st2" d="M24.9,26c0.1-1.3,0.7-2.5,1.7-3.3c1-0.8,2.3-1.3,3.7-1.3c1.4,0,2.7,0.5,3.7,1.3c1,0.8,1.6,2,1.7,3.3
		c0.1,1.4-0.5,2.6-1.4,3.6c-1,1-2.4,1.6-3.9,1.6c-1.6,0-3-0.6-3.9-1.6C25.4,28.6,24.8,27.3,24.9,26L24.9,26z"/>
	<path class="st3" d="M16.3,28.7c0,0.5,0.2,1.5,0.4,2.3c0.5,1.7,1.4,3.2,2.6,4.6c1.3,1.4,2.8,2.5,4.6,3.3c1.9,0.8,3.9,1.3,6.1,1.3
		c2.1,0,4.2-0.4,6.1-1.3c1.8-0.8,3.4-1.9,4.6-3.4c1.2-1.4,2.1-2.9,2.6-4.6c0.3-0.8,0.4-1.7,0.5-2.6c0.1-0.9,0-1.7-0.1-2.6
		c-0.2-1.7-0.8-3.2-1.7-4.6c-0.8-1.3-1.8-2.4-3.1-3.4l0,0L26.6,8.2c0,0,0,0,0,0c-0.8-0.6-2.2-0.6-3.1,0c-0.9,0.6-1,1.7-0.2,2.4l0,0
		l5.2,4.2l-15.8,0h0c-1.3,0-2.6,0.9-2.8,2c-0.3,1.1,0.6,2,2,2l0,0l8,0l-14.3,11c0,0,0,0-0.1,0c-1.4,1-1.8,2.8-0.9,3.9
		c0.9,1.1,2.7,1.1,4.1,0l7.8-6.4C16.4,27.3,16.3,28.2,16.3,28.7L16.3,28.7z M36.4,31.6c-1.6,1.6-3.9,2.6-6.3,2.6
		c-2.4,0-4.7-0.9-6.3-2.6c-0.8-0.8-1.4-1.7-1.7-2.7c-0.3-1-0.5-2-0.4-3c0.1-1,0.4-2,0.9-2.8c0.5-0.9,1.1-1.6,1.9-2.3
		c1.6-1.3,3.6-2,5.6-2c2.1,0,4.1,0.7,5.6,2c0.8,0.7,1.4,1.4,1.9,2.3c0.5,0.9,0.8,1.8,0.9,2.8c0.1,1,0,2.1-0.4,3
		C37.8,29.8,37.2,30.8,36.4,31.6L36.4,31.6z"/>
</g>
<g transform="translate(300, 0)">
	
		<linearGradient id="SVGID_1_" gradientUnits="userSpaceOnUse" x1="-785.3333" y1="-1380.3334" x2="-529.3333" y2="-1636.3334" gradientTransform="matrix(0.1875 0 0 -0.1875 -96.5 -258.8125)">
		<stop  offset="0" style="stop-color:#9013FE"/>
		<stop  offset="1" style="stop-color:#6B11F4"/>
	</linearGradient>
	<path class="st4" d="M-232.5,0h25.5c6.2,0,11.2,5,11.2,11.2v25.5c0,6.2-5,11.2-11.2,11.2h-25.5c-6.2,0-11.2-5-11.2-11.2V11.2
		C-243.8,5-238.7,0-232.5,0z"/>
	<g>
		
			<linearGradient id="SVGID_00000117666845000008165890000017789131800677930906_" gradientUnits="userSpaceOnUse" x1="-702.2766" y1="-1450.9132" x2="-639.5286" y2="-1557.0352" gradientTransform="matrix(0.1875 0 0 -0.1875 -96.5 -258.8125)">
			<stop  offset="0" style="stop-color:#FFFFFF"/>
			<stop  offset="1" style="stop-color:#F1E5FC"/>
		</linearGradient>
		<path style="fill:url(#SVGID_00000117666845000008165890000017789131800677930906_);" d="M-219,36.8c5.6,0,8.9-2.7,8.9-7.2
			c0-3.4-2.4-5.9-5.9-6.2v-0.1c2.6-0.4,4.7-2.8,4.7-5.6c0-3.9-3-6.4-7.7-6.4h-10.4v25.5H-219z M-225.4,14.5h5.4
			c2.9,0,4.6,1.3,4.6,3.7c0,2.5-1.9,3.9-5.5,3.9h-4.5V14.5L-225.4,14.5z M-225.4,33.5v-8.4h5.4c3.8,0,5.8,1.4,5.8,4.2
			c0,2.8-1.9,4.2-5.6,4.2H-225.4L-225.4,33.5z"/>
		<path class="st6" d="M-219,36.8c5.6,0,8.9-2.7,8.9-7.2c0-3.4-2.4-5.9-5.9-6.2v-0.1c2.6-0.4,4.7-2.8,4.7-5.6c0-3.9-3-6.4-7.7-6.4
			h-10.4v25.5H-219z M-225.4,14.5h5.4c2.9,0,4.6,1.3,4.6,3.7c0,2.5-1.9,3.9-5.5,3.9h-4.5V14.5L-225.4,14.5z M-225.4,33.5v-8.4h5.4
			c3.8,0,5.8,1.4,5.8,4.2c0,2.8-1.9,4.2-5.6,4.2H-225.4L-225.4,33.5z"/>
	</g>
</g>
<g transform="translate(600, 0)">
	<path class="st7" d="M-476.2,0h25.5c6.2,0,11.2,5,11.2,11.2v25.5c0,6.2-5,11.2-11.2,11.2h-25.5c-6.2,0-11.2-5-11.2-11.2V11.2
		C-487.5,5-482.5,0-476.2,0z"/>
	<path class="st8" d="M-477.4,19.2l0.5,6h13.4v-6H-477.4z"/>
	<path class="st8" d="M-463.5,7.1L-463.5,7.1h-15l0.5,6h14.5V7.1z"/>
	<path class="st8" d="M-463.5,41v-6.2l0,0l-6.7-1.8l-0.4-4.8h-3.2h-2.8l0.8,9.4L-463.5,41L-463.5,41z"/>
	<path class="st1" d="M-456.1,25.2l-0.7,7.8l-6.7,1.8V41l12.3-3.4l0.1-1l1.4-15.8l0.1-1.6l1.1-12.1h-15v6h8.4l-0.5,6.1h-7.9v6
		H-456.1z"/>
</g>
<g transform="translate(900, 0)">
	<path class="st0" d="M-720,0h25.5c6.2,0,11.2,5,11.2,11.2v25.5c0,6.2-5,11.2-11.2,11.2H-720c-6.2,0-11.2-5-11.2-11.2V11.2
		C-731.2,5-726.2,0-720,0z"/>
	<defs>
		<filter id="Adobe_OpacityMaskFilter" filterUnits="userSpaceOnUse" x="-722.6" y="5.2" width="30.8" height="38.6">
			<feColorMatrix  type="matrix" values="1 0 0 0 0  0 1 0 0 0  0 0 1 0 0  0 0 0 1 0"/>
		</filter>
	</defs>
	
		<mask maskUnits="userSpaceOnUse" x="-722.6" y="5.2" width="30.8" height="38.6" id="mask0_147_896_00000077305358443385902540000016304937902392304006_">
		<path class="st9" d="M-697.1,13.6c-0.1-0.3-0.3-0.6-0.6-0.7c-0.3-0.1-0.6,0-0.9,0.2l-4.4,4.5l-3.5-6.6c-0.1-0.3-0.4-0.5-0.7-0.5
			s-0.6,0.2-0.7,0.5l-1.9,3.6l-4.8-8.9c-0.4-0.7-1.5-0.5-1.6,0.3l-4.6,29.5l12.4,6.9c0.8,0.4,1.7,0.4,2.5,0l12.5-6.9L-697.1,13.6z"
			/>
	</mask>
	<g class="st10">
		
			<linearGradient id="SVGID_00000106126295685244791070000008307797309405595274_" gradientUnits="userSpaceOnUse" x1="-1348.8684" y1="-1467.734" x2="-1167.2424" y2="-1564.131" gradientTransform="matrix(0.1875 0 0 -0.1875 -471.5 -258.8125)">
			<stop  offset="0" style="stop-color:#FFFFFF;stop-opacity:0.1"/>
			<stop  offset="1" style="stop-color:#FFFFFF;stop-opacity:0"/>
		</linearGradient>
		<path style="fill:url(#SVGID_00000106126295685244791070000008307797309405595274_);" d="M-697.1,13.6c-0.1-0.3-0.3-0.6-0.6-0.7
			c-0.3-0.1-0.6,0-0.9,0.2l-4.4,4.5l-3.5-6.6c-0.1-0.3-0.4-0.5-0.7-0.5s-0.6,0.2-0.7,0.5l-1.9,3.6l-4.8-8.9
			c-0.4-0.7-1.5-0.5-1.6,0.3l-4.6,29.5l12.4,6.9c0.8,0.4,1.7,0.4,2.5,0l12.5-6.9L-697.1,13.6z"/>
		<path class="st12" d="M-720.9,35.5l4.6-29.5c0.1-0.8,1.2-1,1.6-0.3l4.8,8.9l1.9-3.6c0.1-0.3,0.4-0.5,0.8-0.5
			c0.3,0,0.6,0.2,0.8,0.5l12.9,24.5H-720.9z"/>
		<rect x="-722.6" y="12.7" class="st13" width="18.6" height="23.6"/>
		<path class="st14" d="M-704.9,24l-5-9.4l-11,20.9L-704.9,24z"/>
		<rect x="-721.8" y="11" class="st13" width="29.9" height="32.8"/>
		<path class="st15" d="M-693.6,35.5l-3.5-21.9c-0.1-0.3-0.3-0.6-0.6-0.7c-0.3-0.1-0.6,0-0.9,0.2l-22.4,22.3l12.4,6.9
			c0.8,0.4,1.7,0.4,2.5,0L-693.6,35.5z"/>
		<path class="st16" d="M-697.1,13.6c-0.1-0.3-0.3-0.6-0.6-0.7c-0.3-0.1-0.6,0-0.9,0.2l-4.4,4.5l-3.5-6.6c-0.1-0.3-0.4-0.5-0.7-0.5
			c-0.3,0-0.6,0.2-0.7,0.5l-1.9,3.6l-4.8-8.9c-0.4-0.7-1.5-0.5-1.6,0.3l-4.6,29.5h0l0,0l0.1,0.1l17.8-17.8l4.4-4.4
			c0.2-0.2,0.6-0.3,0.9-0.2c0.3,0.1,0.5,0.4,0.6,0.7l3.5,21.7l0,0L-697.1,13.6z M-720.9,35.5l4.6-29.3c0.1-0.8,1.2-1,1.6-0.3
			l4.8,8.9l1.9-3.6c0.1-0.3,0.4-0.5,0.8-0.5c0.3,0,0.6,0.2,0.8,0.5l3.4,6.5L-720.9,35.5z"/>
		<path class="st17" d="M-706.1,42.2c-0.8,0.4-1.7,0.4-2.5,0l-12.4-6.9l0,0.2l12.4,6.9c0.8,0.4,1.7,0.4,2.5,0l12.5-6.9l0-0.2
			L-706.1,42.2z"/>
		
			<linearGradient id="SVGID_00000103235368227644020680000001768121194756469695_" gradientUnits="userSpaceOnUse" x1="-1348.8684" y1="-1467.734" x2="-1167.2424" y2="-1564.131" gradientTransform="matrix(0.1875 0 0 -0.1875 -471.5 -258.8125)">
			<stop  offset="0" style="stop-color:#FFFFFF;stop-opacity:0.1"/>
			<stop  offset="1" style="stop-color:#FFFFFF;stop-opacity:0"/>
		</linearGradient>
		<path style="fill:url(#SVGID_00000103235368227644020680000001768121194756469695_);" d="M-697.1,13.6c-0.1-0.3-0.3-0.6-0.6-0.7
			c-0.3-0.1-0.6,0-0.9,0.2l-4.4,4.5l-3.5-6.6c-0.1-0.3-0.4-0.5-0.7-0.5s-0.6,0.2-0.7,0.5l-1.9,3.6l-4.8-8.9
			c-0.4-0.7-1.5-0.5-1.6,0.3l-4.6,29.5l12.4,6.9c0.8,0.4,1.7,0.4,2.5,0l12.5-6.9L-697.1,13.6z"/>
	</g>
</g>
<g transform="translate(1200, 0)">
	<path class="st19" d="M-963.8,0h25.5C-932,0-927,5-927,11.2v25.5c0,6.2-5,11.2-11.2,11.2h-25.5c-6.2,0-11.2-5-11.2-11.2V11.2
		C-975,5-970,0-963.8,0z"/>
	<g>
		<defs>
			<rect id="SVGID_00000159437581464595761300000013267214908892639406_" x="-969.8" y="5.2" width="37.5" height="37.5"/>
		</defs>
		<clipPath id="SVGID_00000150783485833124249200000016365030540074101665_">
			<use xlink:href="#SVGID_00000159437581464595761300000013267214908892639406_"  style="overflow:visible;"/>
		</clipPath>
		<g style="clip-path:url(#SVGID_00000150783485833124249200000016365030540074101665_);">
			<path class="st1" d="M-933,22.3L-949.3,6c-0.2-0.2-0.5-0.4-0.8-0.5c-0.3-0.1-0.6-0.2-0.9-0.2c-0.3,0-0.6,0.1-0.9,0.2
				c-0.3,0.1-0.6,0.3-0.8,0.5l-3.4,3.4l4.3,4.3c1-0.4,2.2-0.1,3,0.7c0.4,0.4,0.6,0.9,0.8,1.4c0.1,0.5,0.1,1.1-0.1,1.6l4.2,4.2
				c1-0.3,2.2-0.1,3,0.7c0.3,0.3,0.5,0.6,0.6,0.9c0.1,0.3,0.2,0.7,0.2,1.1c0,0.4-0.1,0.8-0.2,1.1c-0.1,0.3-0.4,0.7-0.6,0.9
				c-0.3,0.3-0.6,0.5-0.9,0.6c-0.3,0.1-0.7,0.2-1.1,0.2c-0.4,0-0.8-0.1-1.1-0.2c-0.3-0.1-0.7-0.4-0.9-0.6c-0.8-0.8-1.1-2.1-0.6-3.1
				l-3.9-3.9v10.2c0.3,0.1,0.5,0.3,0.8,0.5c0.3,0.3,0.5,0.6,0.6,0.9c0.1,0.3,0.2,0.7,0.2,1.1c0,0.4-0.1,0.8-0.2,1.1
				c-0.1,0.3-0.4,0.7-0.6,0.9c-0.3,0.3-0.6,0.5-0.9,0.6c-0.3,0.1-0.7,0.2-1.1,0.2c-0.4,0-0.8-0.1-1.1-0.2c-0.3-0.1-0.7-0.4-0.9-0.6
				c-0.3-0.3-0.5-0.6-0.6-0.9c-0.1-0.3-0.2-0.7-0.2-1.1c0-0.4,0.1-0.8,0.2-1.1c0.1-0.3,0.4-0.7,0.6-0.9c0.3-0.3,0.6-0.5,0.9-0.6V19
				c-0.3-0.1-0.7-0.3-0.9-0.6c-0.4-0.4-0.7-0.9-0.8-1.5c-0.1-0.6-0.1-1.1,0.2-1.7l-4.3-4.3L-969,22.2c-0.2,0.2-0.4,0.5-0.5,0.8
				c-0.1,0.3-0.2,0.6-0.2,0.9s0.1,0.6,0.2,0.9c0.1,0.3,0.3,0.6,0.5,0.8l16.4,16.4c0.2,0.2,0.5,0.4,0.8,0.5c0.3,0.1,0.6,0.2,0.9,0.2
				c0.3,0,0.6-0.1,0.9-0.2c0.3-0.1,0.6-0.3,0.8-0.5l16.3-16.3c0.2-0.2,0.4-0.5,0.5-0.8c0.1-0.3,0.2-0.6,0.2-0.9
				c0-0.3-0.1-0.6-0.2-0.9C-932.6,22.8-932.7,22.6-933,22.3"/>
		</g>
	</g>
</g>
<g transform="translate(1500, 0)">
	<path class="st0" d="M-1207.5,0h25.5c6.2,0,11.2,5,11.2,11.2v25.5c0,6.2-5,11.2-11.2,11.2h-25.5c-6.2,0-11.2-5-11.2-11.2V11.2
		C-1218.8,5-1213.7,0-1207.5,0z"/>
	<path class="st1" d="M-1194.7,5.6c-10.4,0-18.8,8.4-18.8,18.8c0,8.3,5.4,15.3,12.8,17.8c0.9,0.2,1.3-0.4,1.3-0.9c0-0.4,0-1.9,0-3.5
		c-5.2,1.1-6.3-2.2-6.3-2.2c-0.9-2.2-2.1-2.7-2.1-2.7c-1.7-1.2,0.1-1.1,0.1-1.1c1.9,0.1,2.9,1.9,2.9,1.9c1.7,2.9,4.4,2,5.5,1.6
		c0.2-1.2,0.7-2,1.2-2.5c-4.2-0.5-8.5-2.1-8.5-9.3c0-2,0.7-3.7,1.9-5c-0.2-0.5-0.8-2.4,0.2-5c0,0,1.6-0.5,5.2,1.9
		c1.5-0.4,3.1-0.6,4.7-0.6c1.6,0,3.2,0.2,4.7,0.6c3.6-2.4,5.2-1.9,5.2-1.9c1,2.6,0.4,4.5,0.2,5c1.2,1.3,1.9,3,1.9,5
		c0,7.2-4.4,8.8-8.6,9.3c0.7,0.6,1.3,1.7,1.3,3.5c0,2.5,0,4.5,0,5.1c0,0.5,0.3,1.1,1.3,0.9c7.4-2.5,12.8-9.5,12.8-17.8
		C-1176,14-1184.4,5.6-1194.7,5.6z M-1206.5,32.3c0,0.1-0.2,0.1-0.3,0.1c-0.1-0.1-0.2-0.2-0.2-0.3c0-0.1,0.2-0.1,0.3-0.1
		C-1206.5,32.1-1206.4,32.2-1206.5,32.3z M-1205.6,33.2c-0.1,0.1-0.3,0-0.4-0.1c-0.1-0.1-0.1-0.3-0.1-0.4c0.1-0.1,0.3,0,0.4,0.1
		C-1205.5,32.9-1205.5,33.1-1205.6,33.2z M-1204.9,34.2c-0.1,0.1-0.3,0-0.4-0.2c-0.1-0.2-0.1-0.4,0-0.4c0.1-0.1,0.3,0,0.4,0.2
		C-1204.8,33.9-1204.8,34.1-1204.9,34.2z M-1203.9,35.4c-0.1,0.1-0.3,0.1-0.5-0.1c-0.2-0.2-0.2-0.4-0.1-0.5c0.1-0.1,0.3-0.1,0.5,0.1
		C-1203.8,35.1-1203.7,35.3-1203.9,35.4z M-1202.5,35.8c0,0.1-0.3,0.2-0.5,0.2c-0.2-0.1-0.4-0.2-0.3-0.4c0-0.1,0.3-0.2,0.5-0.2
		C-1202.6,35.5-1202.4,35.7-1202.5,35.8z M-1200.9,36c0,0.2-0.2,0.3-0.4,0.3c-0.2,0-0.4-0.1-0.4-0.3c0-0.2,0.2-0.3,0.4-0.3
		C-1201.1,35.7-1200.9,35.9-1200.9,36z M-1199.3,36c0,0.2-0.1,0.3-0.3,0.3c-0.2,0-0.4-0.1-0.4-0.2c0-0.2,0.1-0.3,0.3-0.3
		C-1199.6,35.7-1199.4,35.8-1199.3,36z"/>
</g>
<g transform="translate(1800, 0)">
	<path class="st0" d="M-1451.2,0h25.5c6.2,0,11.2,5,11.2,11.2v25.5c0,6.2-5,11.2-11.2,11.2h-25.5c-6.2,0-11.2-5-11.2-11.2V11.2
		C-1462.5,5-1457.5,0-1451.2,0z"/>
	<path class="st21" d="M-1438.5,41.3l7-21.2h-14.1L-1438.5,41.3L-1438.5,41.3z"/>
	<path class="st22" d="M-1438.5,41.3l-7-21.2h-9.9L-1438.5,41.3L-1438.5,41.3z"/>
	<path class="st23" d="M-1455.4,20l-2.1,6.4c-0.2,0.6,0,1.2,0.5,1.6l18.5,13.2L-1455.4,20L-1455.4,20z"/>
	<path class="st21" d="M-1455.4,20h9.9l-4.2-12.8c-0.2-0.7-1.2-0.7-1.4,0L-1455.4,20L-1455.4,20z"/>
	<path class="st22" d="M-1438.5,41.3l7-21.2h9.9L-1438.5,41.3L-1438.5,41.3z"/>
	<path class="st23" d="M-1421.6,20l2.1,6.4c0.2,0.6,0,1.2-0.5,1.6l-18.5,13.2L-1421.6,20L-1421.6,20z"/>
	<path class="st21" d="M-1421.6,20h-9.9l4.2-12.8c0.2-0.7,1.2-0.7,1.4,0L-1421.6,20L-1421.6,20z"/>
</g>
<g transform="translate(2100, 0)">
	<path class="st0" d="M-1695,0h25.5c6.2,0,11.2,5,11.2,11.2v25.5c0,6.2-5,11.2-11.2,11.2h-25.5c-6.2,0-11.2-5-11.2-11.2V11.2
		C-1706.2,5-1701.2,0-1695,0z"/>
	<path class="st24" d="M-1682.2,11.3l-9.6-1.1l-7.3-3.2h8.4L-1682.2,11.3"/>
	<path class="st24" d="M-1682.2,11.3l9.8-0.8l7-3.4h-8.4L-1682.2,11.3"/>
	<path class="st25" d="M-1682.2,36.7l9.2,0.3l7.7,3.9h-8.4L-1682.2,36.7"/>
	<path class="st26" d="M-1682.2,36.7h-9.2l-7.6,4.2h8.4L-1682.2,36.7"/>
	<path class="st27" d="M-1694.9,24v8.9l-4.2,8v-8.4L-1694.9,24"/>
	<path class="st27" d="M-1694.9,24l-0.7-8.8l-3.5-8.1v8.4L-1694.9,24"/>
	<path class="st28" d="M-1669.6,24l0.9-9.2l3.3-7.6v8.4L-1669.6,24"/>
	<path class="st28" d="M-1669.6,24l0.8,9.9l3.4,7v-8.4L-1669.6,24"/>
	<path class="st29" d="M-1699.1,7.1l16.9,4.2l-2.7,10.7l-9.9,1.9L-1699.1,7.1"/>
	<path class="st30" d="M-1665.4,7.1l-4.2,16.9l-11.3-2.1l-1.3-10.6L-1665.4,7.1"/>
	<path class="st26" d="M-1665.4,40.9l-16.9-4.2l1.9-11.2l10.7-1.5L-1665.4,40.9"/>
	<path class="st31" d="M-1699.1,40.9l4.2-16.9l10.2,2.3l2.5,10.4L-1699.1,40.9"/>
	<path class="st25" d="M-1682.2,11.3l-12.7,12.7l12.7,12.7l12.7-12.7L-1682.2,11.3"/>
</g>
<g transform="translate(2400, 0)">
	<path class="st32" d="M-1938.8,0h25.5c6.2,0,11.2,5,11.2,11.2v25.5c0,6.2-5,11.2-11.2,11.2h-25.5c-6.2,0-11.2-5-11.2-11.2V11.2
		C-1950,5-1945,0-1938.8,0z"/>
	<path class="st1" d="M-1941,7.1l1.6,18.1h20.8l-0.7,7.8l-6.7,1.8l-6.7-1.8l-0.4-5h-6l0.9,9.6l12.3,3.4l12.3-3.4l1.6-18.4h-21.8
		l-0.5-6.1h22.9h0l0.5-6H-1941z"/>
	<path class="st8" d="M-1926,7.1h-15l1.6,18.1h13.4v-6h-7.9l-0.5-6.1h8.5V7.1z"/>
	<path class="st8" d="M-1926,34.8L-1926,34.8l-6.7-1.8l-0.4-5h-6l0.9,9.6l12.3,3.4l0,0V34.8z"/>
</g>
<g transform="translate(2700, 0)">
	<path class="st33" d="M-2182.5,0h25.5c6.2,0,11.2,5,11.2,11.2v25.5c0,6.2-5,11.2-11.2,11.2h-25.5c-6.2,0-11.2-5-11.2-11.2V11.2
		C-2193.8,5-2188.7,0-2182.5,0z"/>
	<path class="st34" d="M-2181.1,40.1l3.7-2.2c0.7,1.3,1.4,2.3,2.9,2.3c1.5,0,2.4-0.6,2.4-2.8V22h4.5v15.4c0,4.7-2.7,6.8-6.7,6.8
		C-2178,44.2-2180.1,42.4-2181.1,40.1"/>
	<path class="st34" d="M-2165.2,39.6l3.7-2.1c1,1.6,2.2,2.7,4.4,2.7c1.9,0,3.1-0.9,3.1-2.2c0-1.5-1.2-2.1-3.3-3l-1.1-0.5
		c-3.3-1.4-5.4-3.1-5.4-6.8c0-3.4,2.6-6,6.6-6c2.9,0,4.9,1,6.4,3.6l-3.5,2.3c-0.8-1.4-1.6-1.9-2.9-1.9c-1.3,0-2.2,0.8-2.2,1.9
		c0,1.4,0.8,1.9,2.8,2.7l1.1,0.5c3.8,1.6,6,3.3,6,7.1c0,4.1-3.2,6.3-7.5,6.3C-2161.2,44.2-2163.9,42.2-2165.2,39.6"/>
</g>
<g transform="translate(3000, 0)">
	<path class="st0" d="M-2426.2,0h25.5c6.2,0,11.2,5,11.2,11.2v25.5c0,6.2-5,11.2-11.2,11.2h-25.5c-6.2,0-11.2-5-11.2-11.2V11.2
		C-2437.5,5-2432.5,0-2426.2,0z"/>
	<g>
		<defs>
			<rect id="SVGID_00000002367148920404622950000002193046508927483556_" x="-2427" y="5.2" width="27.2" height="37.5"/>
		</defs>
		<clipPath id="SVGID_00000134247395363622356230000015180982682534490264_">
			<use xlink:href="#SVGID_00000002367148920404622950000002193046508927483556_"  style="overflow:visible;"/>
		</clipPath>
		<g style="clip-path:url(#SVGID_00000134247395363622356230000015180982682534490264_);">
			<path class="st36" d="M-2400.3,23.3c0,7.4-5.9,13.4-13.1,13.4s-13.1-6-13.1-13.4c0-7.4,5.9-13.4,13.1-13.4
				S-2400.3,15.9-2400.3,23.3z"/>
			<path class="st37" d="M-2426.1,26.7c0,0-1-14,12-14.4l-0.9-1.5l-7,2.4l-2,2.3l-1.8,3.4l-1,3.9l0.3,2.6"/>
			<path class="st38" d="M-2422.4,14.2c-2.3,2.4-3.7,5.6-3.7,9.2c0,3.6,1.4,6.9,3.7,9.2c2.3,2.4,5.5,3.8,9,3.8s6.7-1.5,9-3.8
				c2.3-2.4,3.7-5.6,3.7-9.2c0-3.6-1.4-6.9-3.7-9.2c-2.3-2.4-5.5-3.8-9-3.8C-2417,10.3-2420.1,11.8-2422.4,14.2z M-2423,33.2
				c-2.5-2.5-4-6-4-9.8c0-3.8,1.5-7.3,4-9.8c2.5-2.5,5.8-4.1,9.6-4.1c3.7,0,7.1,1.6,9.6,4.1c2.5,2.5,4,6,4,9.8c0,3.8-1.5,7.3-4,9.8
				c-2.5,2.5-5.8,4.1-9.6,4.1C-2417.2,37.2-2420.6,35.7-2423,33.2"/>
			<path class="st39" d="M-2407.9,23.4l-2,0.3l-2.7,0.3l-1.8,0l-1.7,0l-1.3-0.4l-1.2-1.3l-0.9-2.6l-0.2-0.6l-1.2-0.4l-0.7-1.2
				l-0.5-1.7l0.6-1.5l1.3-0.5l1.1,0.5l0.5,1.1l0.6-0.1l0.2-0.3l-0.2-1.2l-0.1-1.5l0.3-2l0-1.1l0.9-1.5l1.6-1.2l2.8-1.2l3.1,0.5
				l2.7,2l1.3,2l0.8,1.5l0.2,3.6l-0.6,3.1l-1.1,2.8l-1.1,1.5"/>
			<path class="st40" d="M-2409.6,32.1l-7.2,0.3v1.2l0.6,4.2l-0.3,0.4l-5-1.7l-0.4-0.6l-0.5-5.7l-1.2-3.4l-0.3-0.8l4-2.8l1.3-0.5
				l1.1,1.4l1,0.9l1.1,0.4l0.5,0.2l0.6,2.6l0.5,0.6l1.2-0.4l-0.8,1.6l4.4,2.1L-2409.6,32.1"/>
			<path class="st41" d="M-2421.5,14.6l1.3-0.5l1.1,0.5l0.5,1.1l0.6-0.1l0.2-0.6l-0.3-1.2l0.3-2.8l-0.3-1.5l0.9-1.1l2-1.6l-0.6-0.8
				l-2.8,1.4l-1.2,0.9l-0.7,1.4l-1,1.4l-0.3,1.6L-2421.5,14.6z"/>
			<path class="st42" d="M-2419.4,9.9c0,0,0.8-1.9,3.8-2.8c3-0.9,0.2-0.7,0.2-0.7l-3.3,1.3L-2420,9l-0.6,1L-2419.4,9.9z"/>
			<path class="st42" d="M-2420.9,14.2c0,0-1.1-3.5,3-4l-0.2-0.6l-2.8,0.7l-0.8,2.6l0.2,1.7L-2420.9,14.2z"/>
			<path class="st43" d="M-2419.3,18.9l0.7-0.6c0,0,0.3,0,0.3,0.4c0.1,0.4,0.2,3.5,2.4,5.2c0.2,0.2-1.6-0.3-1.6-0.3l-1.6-2.5"/>
			<path class="st43" d="M-2410.1,17.9c0,0,0.1-1.5,0.5-1.4c0.4,0.1,0.4,0.5,0.4,0.5S-2410.2,17.7-2410.1,17.9"/>
			<path class="st44" d="M-2406,12.4c0,0-0.8,0.2-0.9,0.9c-0.1,0.7,0.9,0.2,1.1,0.1"/>
			<path class="st44" d="M-2412,12.4c0,0-1.1,0.2-1.1,0.9c0,0.7,1.3,0.7,1.6,0.4"/>
			<path class="st43" d="M-2418.8,15.7c0,0-1.9-1.2-2.1-0.1c-0.2,1.1-0.7,1.9,0.3,3.1l-0.7-0.2l-0.6-1.6l-0.2-1.5l1.2-1.2l1.3,0.1
				l0.8,0.6L-2418.8,15.7z"/>
			<path class="st43" d="M-2417.9,12.5c0,0,0.9-4.4,5.2-5.3c3.5-0.7,5.4,0.2,6.1,1c0,0-3.2-3.8-6.2-2.6c-3,1.2-5.2,3.3-5.2,4.6
				C-2417.9,12.5-2417.9,12.5-2417.9,12.5z"/>
			<path class="st43" d="M-2406.3,8.7c0,0-1.5-0.1-1.5,1.3c0,0,0,0.2,0.1,0.4c0,0,1.2-1.3,1.9-0.6"/>
			<path class="st43" d="M-2412.7,10.5c0,0-0.2-2-2-0.8c-1.1,0.8-1,1.8-0.8,2c0.2,0.2,0.1,0.6,0.3,0.3c0.2-0.3,0.1-1.2,0.7-1.4
				C-2413.9,10.3-2413,10.1-2412.7,10.5z"/>
			<path class="st45" d="M-2417.4,24.1l-4.7,2.1c0,0,2,7.8,1,10.2l-0.7-0.3l-0.1-3l-1.3-5.6l-0.6-1.6l4.9-3.3L-2417.4,24.1z"/>
			<path class="st45" d="M-2416.9,28.3l0.7,0.8v3h-0.8c0,0-0.1-2.1-0.1-2.4s0.1-1.2,0.1-1.2"/>
			<path class="st45" d="M-2416.9,32.6l-2.3,0.1l0.7,0.5l1.6,0.3"/>
			<path class="st40" d="M-2409.2,32.1l1.9-0.1l0.5,4.6l-1.9,0.3L-2409.2,32.1"/>
			<path class="st40" d="M-2408.7,32.1l2.8-0.2c0,0,1.2-2.9,1.2-3.1c0-0.2,1-4.2,1-4.2l-2.3-2.4l-0.5-0.4l-1.2,1.2v4.7L-2408.7,32.1
				"/>
			<path class="st45" d="M-2407.4,31.8l-1.8,0.4l0.3,1.4c0.7,0.3,1.8-0.5,1.8-0.5"/>
			<path class="st45" d="M-2407.4,23l3.5,2.6l0.1-1.2l-2.7-2.5L-2407.4,23z"/>
			<path class="st46" d="M-2415.1,42l-1-4.2l-0.5-3.1l-0.1-2.3l4.7-0.2l2.9,0l-0.3,5.3l0.5,4.1l-0.1,0.8l-3.8,0.3L-2415.1,42"/>
			<path class="st42" d="M-2409.8,32.1c0,0-0.3,5.2,0.5,8.9c0,0-1.5,1-3.7,1.2l4.2-0.2l0.5-0.3l-0.6-8.2l-0.2-1.8"/>
			<path class="st46" d="M-2406.8,36.3l2-0.6l3.7-0.2l0.6-1.7l-1-3l-1.2-0.2l-1.6,0.5l-1.5,0.8l-0.8-0.1l-0.6,0.2"/>
			<path class="st42" d="M-2406.8,35.3c0,0,1.3-0.6,1.5-0.6l-0.6-2.8l0.7-0.3c0,0,0.5,2.6,0.5,2.9c0,0,2.8,0.2,3.1,0.2
				c0,0,0.6-1.2,0.5-2.4l0.6,1.6l0.1,0.9l-0.8,1.2l-0.9,0.2l-1.5-0.1l-0.5-0.7l-1.8,0.3l-0.6,0.2"/>
			<path class="st1" d="M-2408.8,31.7l-1.1-2.8l-1.2-1.7c0,0,0.3-0.7,0.6-0.7c0.4,0,1.2,0,1.2,0l1.1,0.4l-0.1,1.9L-2408.8,31.7z"/>
			<path class="st42" d="M-2408.6,30.8c0,0-1.4-2.7-1.4-3.1c0,0,0.3-0.6,0.6-0.5c0.4,0.2,1.1,0.6,1.1,0.6v-1l-1.7-0.4l-1.2,0.2
				l2,4.6l0.4,0.1"/>
			<path class="st1" d="M-2414.7,24.2l-1.4-0.2l-1.3-0.4v0.5l0.6,0.7l2,0.9"/>
			<path class="st42" d="M-2416.9,24.3c0,0,1.6,0.7,2.1,0.5l0,0.6l-1.4-0.3l-0.9-0.6L-2416.9,24.3z"/>
			<path class="st36" d="M-2406.8,26.7c-0.8,0-1.6-0.1-2.3-0.3c0-0.3,0-0.5,0-0.7c0.2-0.1,0.5-0.1,0.8-0.2c-0.2-0.1-0.6-0.2-0.9-0.1
				c0-0.2-0.1-0.3-0.1-0.5c0.5-0.2,1.6-1.3,2.2-0.9c0.3,0.2,0.4,1.2,0.5,1.7C-2406.6,26.1-2406.6,26.5-2406.8,26.7z"/>
			<path class="st47" d="M-2406.8,26.7c-0.8,0-1.6-0.1-2.3-0.3c0-0.3,0-0.5,0-0.7c0.2-0.1,0.5-0.1,0.8-0.2c-0.2-0.1-0.6-0.2-0.9-0.1
				c0-0.2-0.1-0.3-0.1-0.5c0.5-0.2,1.6-1.3,2.2-0.9c0.3,0.2,0.4,1.2,0.5,1.7C-2406.6,26.1-2406.6,26.5-2406.8,26.7z"/>
			<path class="st36" d="M-2410.8,25.3c0,0.1,0,0.1,0,0.2c-0.3,0.2-0.7,0.2-1,0.3c0.4,0,0.8,0.1,1.1,0.3c0,0.2,0,0.3,0,0.5
				c-0.5,0.3-0.9,0.8-1.5,1.1c-0.3,0.1-1.2,0.5-1.5,0.5c-0.2,0-0.2-0.2-0.2-0.4c-0.1-0.4-0.5-1.1-0.5-1.7c0-0.8-0.1-2.1,0.7-1.9
				c0.7,0.1,1.5,0.4,2,0.7C-2411.5,25.1-2411.3,25.3-2410.8,25.3"/>
			<path class="st47" d="M-2410.8,25.3c0,0.1,0,0.1,0,0.2c-0.3,0.2-0.7,0.2-1,0.3c0.4,0,0.8,0.1,1.1,0.3c0,0.2,0,0.3,0,0.5
				c-0.5,0.3-0.9,0.8-1.5,1.1c-0.3,0.1-1.2,0.5-1.5,0.5c-0.2,0-0.2-0.2-0.2-0.4c-0.1-0.4-0.5-1.1-0.5-1.7c0-0.8-0.1-2.1,0.7-1.9
				c0.7,0.1,1.5,0.4,2,0.7C-2411.5,25.1-2411.3,25.3-2410.8,25.3L-2410.8,25.3z"/>
			<path class="st36" d="M-2410.4,26.3c-0.1-0.4-0.2-0.5-0.1-0.9C-2409.4,24.6-2409.1,26.6-2410.4,26.3z"/>
			<path class="st47" d="M-2410.4,26.3c-0.1-0.4-0.2-0.5-0.1-0.9C-2409.4,24.6-2409.1,26.6-2410.4,26.3z"/>
			<path class="st48" d="M-2408.7,26.6c0,0-0.4-0.5-0.1-0.7c0.3-0.2,0.5,0,0.7-0.3s0-0.4,0.1-0.7c0-0.3,0.3-0.4,0.6-0.4
				c0.3-0.1,1-0.2,1.1,0.1l-0.3-0.9l-0.6-0.2l-1.9,1.1l-0.1,0.6v1.1"/>
			<path class="st48" d="M-2414,28.3c-0.1-0.8-0.1-1.6-0.2-2.3c-0.1-1.2,0.3-1,1.3-1c0.2,0,1,0.2,1,0.3c0.3,0.6-0.5,0.4,0.3,0.9
				c0.7,0.4,1.8-0.2,1.5-1c-0.1-0.2-0.8-0.1-1-0.2c-0.4-0.2-0.8-0.4-1.2-0.6c-0.5-0.3-1.6-0.6-2.2-0.3c-1.3,0.9,0.1,3.2,0.6,4.2"/>
			<path class="st49" d="M-2412.7,10.5c-1.4-0.3-2,0.6-2.5,1.5c-0.4-0.1-0.2-0.6-0.1-0.8c0.2-0.7,1.2-1.6,2-1.4
				C-2412.9,9.8-2412.4,10.1-2412.7,10.5"/>
			<path class="st49" d="M-2406,12.1C-2406,12.1-2406,12.1-2406,12.1c0.4,0.6,0.6,1.3,1,1.9c-0.3,0.6-2,1.1-1.9,0.1
				c0.4-0.2,1,0,1.3-0.2C-2405.8,13.3-2406.1,12.8-2406,12.1"/>
			<path class="st49" d="M-2412,12.1c0.3,0.5,0.4,1.1,0.8,1.5c0.2,0.2,0.6,0.4,0.4,0.9c0,0.1-0.4,0.4-0.5,0.4
				c-0.7,0.2-2.2,0-1.7-0.8c0.5,0,1.3,0.3,1.7,0C-2411.6,13.6-2412.2,12.7-2412,12.1"/>
			<path class="st49" d="M-2406.3,17.5c-1,0.6-2.1,1.3-3.7,1.2c-0.3-0.3-0.5-1-0.1-1.4c0.2,0.3,0.1,0.8,0.5,0.9
				c0.9,0.2,2-0.6,2.6-0.8c0.4-0.7,0-0.9-0.4-1.4c-0.7-0.9-1.8-2-1.7-3.4c0.3-0.2,0.3,0.3,0.4,0.4c0.4,0.9,1.4,2.1,2.1,2.9
				c0.2,0.2,0.5,0.4,0.5,0.5C-2406,16.9-2406.3,17.3-2406.3,17.5"/>
			<path class="st49" d="M-2419.2,16.9c-0.3-0.2-0.4-0.9-0.7-1c-0.5,0-0.4,1-0.4,1.6c-0.4-0.3-0.4-1.3-0.2-1.8
				c-0.3-0.1-0.4,0.2-0.6,0.3C-2420.9,14.4-2418.8,15.3-2419.2,16.9z"/>
			<path class="st49" d="M-2405.6,18.2c-0.5,0.9-1.1,1.8-2.4,1.9c0-0.3,0-0.7,0-0.9C-2407.1,19.1-2406.4,18.5-2405.6,18.2z"/>
			<path class="st49" d="M-2412,18.7c0.9,0.4,2.4,0.5,3.6,0.5c0.1,0.3,0.1,0.6,0.1,0.9C-2409.9,20.2-2411.7,19.8-2412,18.7z"/>
			<path class="st49" d="M-2412.2,19.6c0.6,1.5,2.6,1.3,4.3,1.3c-0.1,0.2-0.2,0.4-0.4,0.5c-0.5,0.2-2.1,0.4-2.8,0
				c-0.5-0.3-0.8-0.8-1.1-1.2C-2412.3,20-2413,19.6-2412.2,19.6"/>
			<path class="st50" d="M-2406.3,27.8c-0.7,1.2-1.4,2.4-2.2,3.4c0.3-1,0.5-2.7,0.5-4C-2407.2,26.9-2406.6,27.3-2406.3,27.8z"/>
			<path class="st49" d="M-2402.6,32c-0.8,0.2-1.3,0.9-2.1,0.9C-2404.3,32.3-2403.5,32-2402.6,32z"/>
			<path class="st49" d="M-2402.3,33.2c-0.6,0.1-1.4,0.2-2,0.1C-2404,32.9-2402.8,33-2402.3,33.2z"/>
			<path class="st49" d="M-2402,34.3c-0.7,0-1.6,0-2.3-0.1C-2403.9,33.8-2402.5,34.1-2402,34.3z"/>
			<path class="st42" d="M-2407.7,37.1c0.1,0.9,0.5,1.8,0.4,2.8c-0.4,0.1-0.6,0.2-1.1,0.2c0-0.8-0.1-2.1-0.1-2.9
				C-2408.3,37.3-2407.9,37.1-2407.7,37.1z"/>
			<path class="st39" d="M-2408.8,24c-0.4,0.2-0.7,0.5-1,0.8c-0.8,0-1.2-0.1-1.7-0.5c0,0,0.1,0,0.1-0.1
				C-2410.7,24.6-2409.6,24.1-2408.8,24"/>
			<path class="st50" d="M-2413.1,29.5c0.2-1,1.1-1.5,1.9-2c0.8,1,1.3,2.4,1.9,3.7C-2410.6,30.8-2411.9,30.2-2413.1,29.5z"/>
			<path class="st49" d="M-2408.5,37.3c0,0.8,0.1,2.1,0.1,2.9c0.5,0,0.8-0.1,1.1-0.2c0-1-0.3-1.9-0.4-2.8
				C-2407.9,37.1-2408.3,37.3-2408.5,37.3L-2408.5,37.3z M-2416.7,32.8c0.3,3.2,0.8,5.9,1.8,8.7c2,0.6,4.5,0.7,6.3,0.1
				c-0.3-1.6-0.2-3.5-0.4-5.2c-0.1-1.3-0.1-2.6-0.3-3.9C-2411.5,32-2414.6,32.4-2416.7,32.8L-2416.7,32.8z M-2408.8,32.5
				c0,1.4,0.1,2.7,0.2,4.1c0.5-0.1,0.9-0.1,1.4-0.2c-0.2-1.3-0.1-2.8-0.5-4C-2408.1,32.4-2408.4,32.4-2408.8,32.5L-2408.8,32.5z
				 M-2406.1,32.3c-0.2-0.1-0.5,0-0.8,0c0.1,1.1,0.4,2.3,0.5,3.5c0.4,0,0.6-0.2,0.9-0.2C-2405.5,34.5-2405.6,33.1-2406.1,32.3
				L-2406.1,32.3z M-2402,36c0.8-0.2,1.3-1.1,1.1-2.1c-0.1-0.7-0.4-1.9-0.7-2.3c-0.2-0.3-0.8-0.7-1.2-0.4c-0.7,0.5-2,0.6-2.5,1.2
				c0.3,0.9,0.3,2.1,0.5,3.2c0.9,0.1,2-0.3,2.8,0.1c-0.5,0.2-1.2,0.2-1.7,0.4C-2403.5,36.1-2402.6,36.1-2402,36L-2402,36z
				 M-2409.3,31.2c-0.5-1.3-1-2.6-1.9-3.7c-0.8,0.5-1.7,1-1.9,2C-2411.9,30.2-2410.6,30.8-2409.3,31.2z M-2408,27.2
				c-0.1,1.3-0.2,3-0.5,4c0.8-1,1.5-2.3,2.2-3.4C-2406.6,27.3-2407.2,26.9-2408,27.2L-2408,27.2z M-2409.5,26.7
				c-0.3,0-0.6,0.4-1,0.2c-0.1,0.1-0.2,0.2-0.3,0.3c0.9,1.1,1.3,2.6,2,3.9c0.4-1.2,0.3-2.5,0.4-3.9
				C-2408.9,27.2-2409.1,26.7-2409.5,26.7z M-2410.5,25.4c0,0.4,0.1,0.5,0.1,0.9C-2409.1,26.6-2409.4,24.6-2410.5,25.4z
				 M-2411.8,24.9c-0.5-0.3-1.3-0.6-2-0.7c-0.8-0.2-0.8,1.1-0.7,1.9c0,0.6,0.3,1.3,0.5,1.7c0.1,0.2,0.1,0.4,0.2,0.4
				c0.3,0.1,1.2-0.3,1.5-0.5c0.6-0.3,1-0.8,1.5-1.1c0-0.2,0-0.3,0-0.5c-0.3-0.1-0.6-0.2-1.1-0.3c0.3-0.1,0.7-0.1,1-0.3
				c0-0.1,0-0.1,0-0.2C-2411.3,25.3-2411.5,25.1-2411.8,24.9L-2411.8,24.9z M-2416.8,24c-0.4,0.4,1.2,1,1.7,1.1
				c0-0.3,0.2-0.5,0.1-0.7C-2415.6,24.2-2416.4,24.3-2416.8,24L-2416.8,24z M-2411.5,24.2C-2411.5,24.3-2411.5,24.2-2411.5,24.2
				c0.5,0.5,0.9,0.6,1.7,0.6c0.3-0.2,0.6-0.5,1-0.8C-2409.6,24.1-2410.7,24.6-2411.5,24.2L-2411.5,24.2z M-2406.6,25.7
				c0-0.5-0.2-1.5-0.5-1.7c-0.6-0.4-1.8,0.7-2.2,0.9c0.1,0.1,0.1,0.3,0.1,0.5c0.3-0.1,0.6,0,0.9,0.1c-0.3,0-0.6,0-0.8,0.2
				c-0.1,0.2,0,0.5,0,0.7c0.7,0.2,1.4,0.3,2.3,0.3C-2406.6,26.5-2406.6,26.1-2406.6,25.7L-2406.6,25.7z M-2417.6,24.4
				c-0.1-0.1-1.1-1.3-1.2-1.2c-1.7,0.7-3.2,1.8-4.6,2.9c1.3,2.8,1.9,6.3,2,9.7c1.5,0.7,2.9,1.7,4.9,1.8c-0.2-1.7-0.5-3.2-0.6-4.8
				c-0.5-0.2-1.3,0-1.7-0.1c0-0.6,0.7-0.3,0.8-0.6c0-0.3-0.4-0.3-0.3-0.8c0.4,0.1,0.6,0.4,1,0.6c0.4-0.8,0-2.2,0-2.9
				c0-0.1,0.1-0.7,0.3-0.6c0.3,0.1,0,1.5,0,2.2c0,0.6-0.1,1.2,0.2,1.5c2-0.3,4-0.4,6.2-0.5c-0.5-0.2-1-0.4-1.7-0.7
				c-0.3-0.2-1.4-0.6-1.5-0.9c-0.2-0.5,0.4-0.8,0.5-1.2c-1,0.5-1.2-0.5-1.4-1.3c-0.2-0.7-0.3-1.2-0.4-1.6
				C-2415.9,25.4-2416.8,25-2417.6,24.4L-2417.6,24.4z M-2407.5,23.3c1.4-0.7,1.6,2.5,1.1,3.5c0.1,0.3,0.4,0.4,0.5,0.7
				c-0.8,1.4-1.6,2.7-2.4,4.1c0.6-0.4,1.4-0.1,2.1-0.3c0.3-0.1,0.4-0.7,0.6-1.1c0.5-1.3,1.1-2.9,1.3-4.1c0.1-0.3,0.2-0.9,0.2-1.1
				c-0.1-0.4-0.7-0.8-1-1c-0.6-0.5-0.9-0.9-1.5-1.4C-2406.8,22.8-2407.3,23-2407.5,23.3L-2407.5,23.3z M-2420.7,11
				c-0.7,0.7-0.5,2.1-0.4,3.1c1.2-0.8,2.8,0.1,2.8,1.3c0.6,0,0.2-0.7,0.1-1.2c-0.3-1.5,0.6-3.1,0-4.4
				C-2419.3,9.9-2420.1,10.3-2420.7,11L-2420.7,11z M-2416,6.8c-1.5,0.4-3.4,1.5-4,2.9c0.5-0.1,0.8-0.3,1.3-0.3c0.2,0,0.4,0.1,0.6,0
				c0.4-0.1,0.8-1,1.1-1.4c0.3-0.3,0.7-0.5,0.9-0.8c0.2-0.1,0.4-0.1,0.4-0.3C-2415.8,6.8-2415.9,6.8-2416,6.8L-2416,6.8z
				 M-2408.2,7.2c-1.6-0.9-4.2-1.5-5.8-0.7c-1.3,0.7-3.1,1.8-3.8,3.2c0.6,1.3-0.2,2.6-0.2,3.9c0,0.7,0.3,1.4,0.4,2.2
				c-0.2,0.3-0.8,0.4-1.2,0.3c-0.1-0.7-0.4-1.5-1.1-1.6c-1-0.1-1.8,0.7-1.8,1.6c-0.1,1,0.8,2.8,2,2.6c0.5,0,0.6-0.5,1.1-0.5
				c0.3,0.5-0.4,0.7-0.5,1.1c0,0.1,0.1,0.5,0.1,0.7c0.2,0.9,0.7,2.1,1.2,2.8c0.6,0.9,1.8,1,3.1,1.1c0.2-0.5,1.1-0.5,1.6-0.3
				c-0.7-0.3-1.3-0.9-1.8-1.5c-0.6-0.6-1.2-1.3-1.2-2.2c1.1,1.5,2,2.9,4,3.6c1.5,0.5,3.3-0.2,4.5-1.1c0.5-0.3,0.8-0.9,1.1-1.4
				c1.3-1.9,1.9-4.5,1.8-7.1c-0.1-1.1-0.1-2.1-0.4-2.8c-0.4-0.7-1.6-1.4-2.4-0.7c-0.1-0.7,0.6-1.2,1.5-0.9
				C-2406.6,8.7-2407.3,7.7-2408.2,7.2L-2408.2,7.2z M-2405.3,31.2c1.2-0.6,3.5-1.6,4.2,0c0.3,0.6,0.6,1.6,0.8,2.2
				c0.2,0.9-0.2,2.7-1.1,3c-0.8,0.3-1.7,0.2-2.7,0.1c-0.1-0.1-0.2-0.3-0.3-0.4c-0.7,0-1.3,0-1.9,0.3c0.1,0.5-0.3,0.6-0.6,0.7
				c-0.2,0.9,0.5,2.2,0.3,3c-0.1,0.6-0.9,0.7-1.4,0.8c0,0.3,0,0.6,0.1,0.9c-0.1,0.5-0.7,0.7-1.2,0.8c-1.8,0.2-4.4,0.3-6.1-0.3
				c-0.5-1.2-0.8-2.6-1.2-3.9c-1.7,0.2-3-0.7-4.3-1.3c-0.4-0.2-1-0.3-1.2-0.7c-0.2-0.3-0.1-1-0.1-1.6c-0.1-1.6-0.2-3.1-0.6-4.7
				c-0.2-0.7-0.5-1.3-0.7-2c-0.2-0.6-0.6-1.4-0.7-2.1c-0.1-0.9,0.8-1,1.3-1.4c0.9-0.6,1.6-1,2.5-1.6c0.3-0.2,1.1-0.6,1.2-0.8
				c0.2-0.4-0.3-0.9-0.5-1.3c-0.2-0.5-0.3-0.9-0.4-1.4c-0.8-0.1-1.4-0.6-1.8-1.1c-0.6-0.9-1-2.5-0.5-3.8c0-0.1,0.2-0.3,0.3-0.4
				c0.1-0.3-0.1-0.7-0.1-1c-0.1-1.6,0.3-3,1.4-3.5c0.4-1.8,2-2.4,3.5-3.2c0.6-0.3,1.2-0.5,1.8-0.8c2.3-0.8,5.8-0.7,7.7,0.8
				c0.8,0.6,2.1,1.9,2.5,2.8c1.2,2.5,1.1,6.6,0.3,9.5c-0.1,0.4-0.3,1-0.5,1.5c-0.2,0.3-0.7,1-0.6,1.3c0.1,0.3,1.1,1.1,1.4,1.4
				c0.4,0.4,1.2,0.9,1.3,1.4c0.1,0.5-0.2,1.3-0.4,1.8C-2404.2,28-2404.7,29.6-2405.3,31.2"/>
			<path class="st43" d="M-2413.4,19.1c0.1-0.1,0.4-0.2,0.9,0c0,0-0.6,0.1-0.6,1.1l-0.3-0.1C-2413.3,20.2-2413.5,19.3-2413.4,19.1"
				/>
			<path class="st51" d="M-2409,27.7c0,0.2-0.1,0.3-0.3,0.3s-0.3-0.1-0.3-0.3c0-0.2,0.1-0.3,0.3-0.3S-2409,27.6-2409,27.7z"/>
			<path class="st51" d="M-2408.7,29c0,0.2-0.1,0.3-0.3,0.3c-0.2,0-0.3-0.1-0.3-0.3c0-0.2,0.1-0.3,0.3-0.3
				C-2408.9,28.7-2408.7,28.9-2408.7,29z"/>
		</g>
	</g>
</g>
<g transform="translate(3300, 0)">
	<path class="st52" d="M-2670,0h25.5c6.2,0,11.2,5,11.2,11.2v25.5c0,6.2-5,11.2-11.2,11.2h-25.5c-6.2,0-11.2-5-11.2-11.2V11.2
		C-2681.2,5-2676.2,0-2670,0z"/>
	<path class="st1" d="M-2641.2,23.7c0-2.3-1.6-4.2-3.6-4.7l4.7-13.8h-23.1l4.7,13.8c-2,0.6-3.5,2.5-3.5,4.7c0,1.6,0.8,3.1,2.1,4
		c-0.5,0.7-1.1,1.3-1.7,1.9c-1.2,1.1-2.5,2-4,2.6c-1.3-0.9-1.9-2.4-1.4-3.8c2-0.6,3.4-2.5,3.4-4.6c0-2.7-2.2-4.9-4.9-4.9
		c-2.7,0-4.9,2.2-4.9,4.9c0,1.3,0.5,2.5,1.4,3.4c-0.1,0.2-0.2,0.3-0.2,0.5c-0.7,1.5-1.6,3.2-1.9,5.1c-0.6,3.8,0.4,6.9,2.9,8.6
		c1.4,1,2.9,1.5,4.6,1.5c2.9,0,5.8-1.4,8.6-2.8c2-1,4.1-2,6.1-2.5c0.7-0.2,1.5-0.3,2.4-0.4c1.7-0.2,3.4-0.5,5-1.4
		c1.8-1.1,3.1-2.8,3.4-4.8c0.3-1.6,0-3.1-0.7-4.5C-2641.5,25.5-2641.2,24.7-2641.2,23.7L-2641.2,23.7z M-2643.4,23.7
		c0,1.5-1.2,2.7-2.7,2.7c-1.5,0-2.7-1.2-2.7-2.7c0-0.5,0.1-1,0.4-1.4c0.1-0.2,0.2-0.3,0.3-0.4c0.1-0.1,0.2-0.2,0.4-0.4l0,0
		c0.1-0.1,0.2-0.1,0.3-0.2c0,0,0,0,0,0c0,0,0.1-0.1,0.1-0.1c0,0,0,0,0,0c0,0,0.1,0,0.2-0.1c0.1,0,0.1,0,0.2-0.1c0,0,0,0,0,0
		c0,0,0.1,0,0.1,0c0,0,0,0,0,0c0.1,0,0.1,0,0.2,0h0l0.2,0c0,0,0,0,0,0c0,0,0.1,0,0.1,0h0.1c0.1,0,0.1,0,0.2,0h0.1c0,0,0.1,0,0.1,0h0
		c0.1,0,0.2,0,0.3,0C-2644.3,21.3-2643.4,22.4-2643.4,23.7L-2643.4,23.7z M-2660.3,7.4h17.1l-3.9,11.6c-0.2,0-0.3,0.1-0.5,0.1
		l-4.1-8.4l-4.1,8.4c-0.2-0.1-0.3-0.1-0.5-0.1L-2660.3,7.4z M-2652.6,22.8c-0.2-1-0.7-1.9-1.5-2.6l2.2-4.5l2.3,4.6
		c-0.7,0.7-1.2,1.5-1.4,2.5H-2652.6z M-2658,21.1c0.1,0,0.1,0,0.2,0h0c0,0,0.1,0,0.1,0h0c0,0,0.1,0,0.1,0h0.4c0,0,0.1,0,0.1,0
		c0,0,0,0,0.1,0c0,0,0.1,0,0.1,0c0,0,0,0,0,0c0.1,0,0.1,0,0.2,0h0c0,0,0.1,0,0.1,0c0,0,0,0,0,0c0,0,0.1,0,0.1,0c0,0,0,0,0,0
		c0,0,0.1,0,0.1,0.1h0c0.1,0,0.1,0,0.1,0.1h0c0,0,0.1,0.1,0.1,0.1c0,0,0,0,0,0c0,0,0.1,0.1,0.1,0.1l0,0c0.1,0.1,0.2,0.2,0.4,0.3l0,0
		c0.1,0.1,0.2,0.2,0.3,0.4c0.3,0.4,0.4,0.9,0.4,1.5c0,1.5-1.2,2.7-2.7,2.7s-2.7-1.2-2.7-2.7C-2660.1,22.4-2659.2,21.4-2658,21.1
		L-2658,21.1z M-2668.7,21c1.5,0,2.7,1.2,2.7,2.7c0,1.5-1.2,2.7-2.7,2.7c-1.5,0-2.7-1.2-2.7-2.7C-2671.4,22.2-2670.2,21-2668.7,21z
		 M-2643.4,30.4c-0.2,1.4-1.1,2.6-2.4,3.3c-1.2,0.7-2.6,0.9-4.2,1.1c-0.8,0.1-1.7,0.2-2.6,0.5c-2.3,0.6-4.4,1.6-6.5,2.7
		c-2.7,1.3-5.2,2.6-7.6,2.6c-1.2,0-2.3-0.3-3.4-1.1c-2.4-1.7-2.3-4.7-2-6.4c0.3-1.6,1-3.1,1.7-4.5c0-0.1,0.1-0.2,0.1-0.2
		c0.2,0.1,0.5,0.2,0.7,0.2c-0.4,2.3,0.8,4.7,3,5.9l0.4,0.2l0.4-0.2c1.9-0.7,3.7-1.8,5.2-3.2c0.9-0.8,1.6-1.7,2.3-2.7
		c0.2,0,0.5,0.1,0.7,0.1c2.3,0,4.2-1.6,4.7-3.6h1.8c0.5,2.1,2.4,3.6,4.7,3.6c0.9,0,1.7-0.2,2.5-0.7
		C-2643.4,28.7-2643.3,29.5-2643.4,30.4L-2643.4,30.4z"/>
</g>
<g transform="translate(3600, 0)">
	<path class="st0" d="M-2913.8,0h25.5c6.2,0,11.2,5,11.2,11.2v25.5c0,6.2-5,11.2-11.2,11.2h-25.5c-6.2,0-11.2-5-11.2-11.2V11.2
		C-2925,5-2920,0-2913.8,0z"/>
	<path class="st53" d="M-2889,29.6c0.1-0.1,0.3-0.2,0.4-0.4c0.1-0.1,0.1-0.3,0.1-0.5l0-5.7c0-0.2,0-0.3,0.1-0.5
		c0.1-0.1,0.2-0.3,0.4-0.4l3.1-1.8c0.1-0.1,0.3-0.1,0.5-0.1c0.2,0,0.3,0,0.5,0.1c0.1,0.1,0.3,0.2,0.4,0.4c0.1,0.1,0.1,0.3,0.1,0.5
		v10.3c0,0.2,0,0.3-0.1,0.5c-0.1,0.1-0.2,0.3-0.4,0.4l-11.6,6.6c-0.1,0.1-0.3,0.1-0.5,0.1c-0.2,0-0.3,0-0.5-0.1l-9.1-5.2
		c-0.1-0.1-0.3-0.2-0.4-0.4c-0.1-0.1-0.1-0.3-0.1-0.5v-5.2c0,0,0,0,0,0c0,0,0,0,0,0v0c0,0,0,0,0,0l7.5-4.3c0,0,0,0,0,0c0,0,0,0,0,0
		c0,0,0,0,0,0l0-5.1c0-0.2,0-0.3-0.1-0.5c-0.1-0.1-0.2-0.3-0.4-0.4c-0.1-0.1-0.3-0.1-0.5-0.1c-0.2,0-0.3,0-0.5,0.1l-5.6,3.2
		c-0.1,0.1-0.3,0.1-0.5,0.1s-0.3,0-0.5-0.1l-5.6-3.2c-0.1-0.1-0.3-0.1-0.5-0.1c-0.2,0-0.3,0-0.5,0.1c-0.1,0.1-0.3,0.2-0.4,0.4
		c-0.1,0.1-0.1,0.3-0.1,0.5v9.2c0,0.2,0,0.3-0.1,0.5c-0.1,0.1-0.2,0.3-0.4,0.4c-0.1,0.1-0.3,0.1-0.5,0.1c-0.2,0-0.3,0-0.5-0.1
		l-3.1-1.8c-0.1-0.1-0.3-0.2-0.4-0.4c-0.1-0.1-0.1-0.3-0.1-0.5l0-16c0-0.2,0-0.3,0.1-0.5c0.1-0.1,0.2-0.3,0.4-0.4
		c0.1-0.1,0.3-0.1,0.5-0.1c0.2,0,0.3,0,0.5,0.1l10.6,6.1c0.1,0.1,0.3,0.1,0.5,0.1s0.3,0,0.5-0.1l10.6-6.1c0.1-0.1,0.3-0.1,0.5-0.1
		c0.2,0,0.3,0,0.5,0.1c0.1,0.1,0.3,0.2,0.4,0.4c0.1,0.1,0.1,0.3,0.1,0.5v16c0,0.2,0,0.3-0.1,0.5c-0.1,0.1-0.2,0.3-0.4,0.4l-5.5,3.2
		c-0.1,0.1-0.3,0.2-0.4,0.4s-0.1,0.3-0.1,0.5c0,0.2,0,0.3,0.1,0.5c0.1,0.1,0.2,0.3,0.4,0.4l3.1,1.7c0.1,0.1,0.3,0.1,0.5,0.1
		c0.2,0,0.3,0,0.5-0.1L-2889,29.6L-2889,29.6z M-2888.4,15.2c0,0.2,0,0.3,0.1,0.5c0.1,0.1,0.2,0.3,0.4,0.4c0.2,0.1,0.3,0.1,0.5,0.1
		c0.2,0,0.3-0.1,0.5-0.1l2.9-1.8c0.1-0.1,0.3-0.2,0.3-0.4c0.1-0.1,0.1-0.3,0.1-0.5V9.8c0-0.2,0-0.3-0.1-0.5s-0.2-0.3-0.4-0.4
		c-0.2-0.1-0.3-0.1-0.5-0.1c-0.2,0-0.3,0.1-0.5,0.1l-2.9,1.8c-0.1,0.1-0.3,0.2-0.3,0.4c-0.1,0.1-0.1,0.3-0.1,0.5V15.2L-2888.4,15.2z
		"/>
</g>
<g transform="translate(3900, 0)">
	<path class="st54" d="M-3157.5,0h25.5c6.2,0,11.2,5,11.2,11.2v25.5c0,6.2-5,11.2-11.2,11.2h-25.5c-6.2,0-11.2-5-11.2-11.2V11.2
		C-3168.8,5-3163.7,0-3157.5,0z"/>
	<path class="st55" d="M-3136.7,20.2c-2-8.7-6.1-11-7.1-12.7c-0.4-0.7-0.8-1.5-1.1-2.2c-0.1,0.8-0.2,1.3-0.8,1.8
		c-1.3,1.2-6.9,5.8-7.4,15.7c-0.4,9.2,6.8,14.9,7.7,15.5c0.7,0.4,1.6,0,2.1-0.3C-3139.9,35.6-3135.1,29.2-3136.7,20.2"/>
	<path class="st56" d="M-3144.6,33.4c-0.2,2.3-0.3,3.6-0.8,4.9c0,0,0.3,2.2,0.5,4.5h0.8c0.2-1.6,0.5-3.2,0.8-4.8
		C-3144.3,37.4-3144.6,35.4-3144.6,33.4z"/>
	<path class="st57" d="M-3143.3,37.9c-1-0.5-1.3-2.6-1.3-4.6c0.2-3.3,0.3-6.6,0.2-9.9c-0.1-1.7,0-16-0.4-18.1
		c0.3,0.7,0.7,1.4,1.1,2.1c1.1,1.6,5.2,4,7.1,12.7C-3135.1,29.2-3139.9,35.5-3143.3,37.9z"/>
</g>
<g transform="translate(4200, 0)">
	<path class="st0" d="M-3401.2,0h25.5c6.2,0,11.2,5,11.2,11.2v25.5c0,6.2-5,11.2-11.2,11.2h-25.5c-6.2,0-11.2-5-11.2-11.2V11.2
		C-3412.5,5-3407.5,0-3401.2,0z"/>
	<path class="st58" d="M-3385,3.4c-0.3,0-0.6,0.1-0.8,0.1c0.5,0.4,0.8,0.8,1,1.4c0,0.1,0,0.1,0,0.2c0,0.1,0,0.1,0,0.2
		c0,0.9-0.2,1.1-0.4,1.6c-0.3,0.7-0.2,1.5,0.1,2.1c0,0.1,0.1,0.2,0.1,0.2c-0.4-2.7,1.8-3.1,2.2-4c0-0.7-0.6-1.2-1-1.6
		C-3384.2,3.5-3384.6,3.4-3385,3.4L-3385,3.4z M-3381.7,4c0,0.2,0,0.2,0,0.3c0,0.1,0,0.2,0,0.3c0,0.1,0,0.2-0.1,0.3
		c0,0.1-0.1,0.2-0.1,0.3c0,0.1-0.1,0.2-0.1,0.2c0,0-0.1,0.1-0.1,0.1c0,0,0,0.1-0.1,0.1c-0.1,0.1-0.1,0.1-0.2,0.2
		c-0.1,0.1-0.1,0.1-0.2,0.2c0,0,0,0,0,0c-0.1,0.1-0.1,0.1-0.2,0.2c-0.2,0.2-0.5,0.3-0.7,0.5c-0.1,0.1-0.1,0.1-0.2,0.2
		c-0.1,0.1-0.1,0.1-0.2,0.2c-0.1,0.1-0.1,0.1-0.2,0.2c-0.1,0.1-0.1,0.1-0.2,0.2c-0.1,0.1-0.1,0.1-0.1,0.2c0,0.1-0.1,0.2-0.1,0.2
		c0,0.1-0.1,0.2-0.1,0.2c0,0.1-0.1,0.2-0.1,0.3c0,0,0,0.1,0,0.1c0,0,0,0.1,0,0.1c0,0.1,0,0.2,0,0.3c0,0.1,0,0.1,0,0.2
		c0,0.1,0,0.2,0,0.3c0,0.1,0,0.2,0.1,0.3c0,0.1,0.1,0.2,0.1,0.3c0,0.1,0.1,0.1,0.1,0.1l-2.4-1c-0.4-0.1-0.8-0.2-1.2-0.3
		c-0.2-0.1-0.4-0.1-0.7-0.2c-0.6-0.1-1.3-0.2-1.9-0.3c0,0,0,0-0.1,0c-0.6-0.1-1.2-0.1-1.9-0.1c-0.5,0-0.9,0-1.4,0.1
		c-0.6,0-1.3,0.1-1.9,0.2c-0.2,0-0.3,0.1-0.5,0.1c-0.3,0.1-0.6,0.1-0.9,0.2c-0.2,0-0.3,0.1-0.5,0.1c-0.2,0.1-0.3,0.1-0.4,0.2
		c-0.1,0.1-0.2,0.1-0.3,0.2c0,0,0,0-0.1,0c-0.1,0.1-0.2,0.1-0.3,0.1c0,0-0.1,0-0.1,0c-0.1,0.1-0.2,0.1-0.3,0.2
		c-0.1,0-0.1,0.1-0.2,0.1c0,0-0.1,0-0.1,0.1c-0.1,0.1-0.2,0.1-0.3,0.2c-0.1,0.1-0.2,0.1-0.3,0.2c-0.1,0.1-0.1,0.1-0.2,0.1
		c0,0,0,0,0,0c-0.1,0-0.1,0.1-0.2,0.1c0,0,0,0,0,0c-0.1,0-0.1,0.1-0.2,0.1c0,0,0,0-0.1,0c-0.1,0-0.1,0.1-0.2,0.1c0,0,0,0,0,0
		c-0.1,0.1-0.1,0.1-0.2,0.2c0,0,0,0,0,0c-0.1,0.1-0.1,0.1-0.2,0.2c0,0,0,0,0,0c-0.1,0.1-0.1,0.1-0.2,0.2c0,0-0.1,0-0.1,0.1
		c-0.1,0.1-0.1,0.1-0.2,0.2c0,0,0,0,0,0.1c-0.1,0.1-0.2,0.2-0.2,0.3c0,0,0,0,0,0c-0.2,0.2-0.3,0.4-0.5,0.5c-0.2,0.2-0.4,0.3-0.6,0.5
		c-0.2,0.1-0.4,0.3-0.6,0.4c-0.2,0.1-0.4,0.2-0.7,0.3c-0.2,0.1-0.4,0.2-0.7,0.3c-0.4,0.1-0.9,0.3-1.3,0.3c-0.1,0-0.2,0-0.3,0
		c-0.1,0-0.2,0-0.3,0.1c-0.1,0-0.2,0.1-0.3,0.1c-0.1,0-0.2,0.1-0.2,0.1c-0.1,0.1-0.2,0.1-0.2,0.1c-0.1,0.1-0.1,0.1-0.2,0.2
		c-0.1,0.1-0.1,0.1-0.2,0.2c-0.1,0.1-0.1,0.1-0.2,0.2c-0.1,0.1-0.1,0.2-0.2,0.2c-0.1,0.1-0.1,0.2-0.1,0.2c0,0.1-0.1,0.2-0.1,0.3
		c0,0.1-0.1,0.2-0.1,0.3c0,0.1,0,0.2-0.1,0.3c0,0,0,0,0,0c0,0.1,0,0.2,0,0.3c0,0.1,0,0.1,0,0.2c0,0,0,0.1,0,0.1c0,0.1,0,0.1,0,0.2
		c0,0.1,0,0.1,0.1,0.2c0,0,0,0,0,0c0,0.1,0.1,0.1,0.1,0.2c0,0.1,0.1,0.1,0.1,0.2c0.1,0.1,0.1,0.1,0.2,0.2c0.1,0.1,0.1,0.1,0.2,0.2
		c0.2,0.2,0.3,0.3,0.6,0.5c0.1,0,0.1,0.1,0.2,0.1c0,0,0,0,0,0c0,0,0,0,0,0.1c0,0.1,0,0.2,0.1,0.3c0,0.1,0.1,0.2,0.1,0.3
		c0,0.1,0.1,0.1,0.1,0.2c0,0,0,0,0,0.1c0,0.1,0.1,0.2,0.1,0.2c0.1,0.1,0.1,0.1,0.2,0.2c0.1,0.1,0.1,0.1,0.2,0.2
		c0.1,0.1,0.1,0.1,0.2,0.2c0,0,0,0,0,0c0.1,0.1,0.1,0.1,0.2,0.1c0.1,0.1,0.1,0.1,0.2,0.1c0.1,0,0.2,0.1,0.2,0.1
		c0.1,0,0.1,0.1,0.2,0.1c0,0,0,0,0,0c0,0,0.1,0,0.1,0c0,0.6,0,1.1,0,1.3c0.1,0.2,0.6-0.4,1-1.2c-0.1,0.7-0.1,1.6,0,1.9
		c0.1,0.3,0.7-0.6,1.3-1.5c7.4-1.8,14.1,3.5,14.8,10.9c-0.1-1.2-1.5-1.8-2.2-1.6c-0.3,0.8-0.8,1.8-1.7,2.4c0.1-0.7,0-1.4-0.1-2.1
		c-0.2,1-0.7,1.9-1.3,2.7c-1,0.1-2-0.4-2.5-1.2c0,0-0.1-0.1-0.1-0.1c0-0.1-0.1-0.1-0.1-0.2c0-0.1-0.1-0.1-0.1-0.2c0-0.1,0-0.1,0-0.2
		c0-0.1,0-0.1,0-0.2c0-0.1,0-0.1,0.1-0.2c0-0.1,0-0.1,0.1-0.2c0-0.1,0.1-0.1,0.1-0.2c0.2-0.5,0.2-0.9-0.1-1.2
		c-0.1,0-0.1-0.1-0.2-0.1c0,0-0.1,0-0.1,0c0,0-0.1,0-0.1,0c-0.1,0-0.1,0-0.2-0.1c-0.1,0-0.1,0-0.2,0c-0.1,0-0.2,0-0.2,0
		c-0.1,0-0.1,0-0.2,0c-0.1,0-0.2,0-0.2,0c-0.1,0-0.1,0-0.2,0c-0.1,0-0.1,0-0.2,0.1c-0.1,0-0.1,0.1-0.2,0.1c-0.1,0-0.1,0.1-0.2,0.1
		c-2.4,1.6-1,5.4,0.7,6.5c-0.6,0.1-1.3,0.3-1.4,0.4c0,0,0,0,0,0c0.4,0.3,0.9,0.5,1.4,0.7c0.7,0.2,1.4,0.4,1.7,0.5v0
		c0.9,0.2,1.7,0.2,2.6,0.2c4.6-0.3,8.4-3.9,9.1-8.7c0,0.1,0,0.2,0.1,0.3c0,0.2,0.1,0.4,0.1,0.6c0,0,0,0,0,0c0,0.1,0,0.2,0,0.3
		c0,0,0,0,0,0c0,0.1,0,0.2,0,0.3c0,0.1,0,0.2,0,0.4c0,0.1,0,0.1,0,0.2c0,0.1,0,0.1,0,0.2c0,0.1,0,0.1,0,0.2c0,0.1,0,0.1,0,0.1
		c0,0.1,0,0.1,0,0.2c0,0,0,0.1,0,0.1c0,0.1,0,0.1,0,0.2c0,0,0,0.1,0,0.1c0,0.1,0,0.2,0,0.2c0,0,0,0.1,0,0.1c0,0.1,0,0.2,0,0.3v0v0
		c0,0.1,0,0.2-0.1,0.3c0,0,0,0,0,0c0,0.1,0,0.2-0.1,0.3c0,0,0,0,0,0c0,0.1,0,0.2-0.1,0.3c0,0,0,0,0,0c0,0.1-0.1,0.2-0.1,0.3
		c0,0,0,0,0,0c0,0.1-0.1,0.2-0.1,0.3c0,0.1-0.1,0.2-0.1,0.3c0,0.1-0.1,0.2-0.1,0.3c0,0.1-0.1,0.2-0.1,0.3h0c0,0.1-0.1,0.2-0.1,0.3
		c0,0,0,0.1,0,0.1c0,0,0,0,0,0c-0.7,1.4-1.7,2.6-2.9,3.6c-0.1,0.1-0.2,0.1-0.2,0.2c0,0-0.1,0-0.1,0.1c-0.1,0.1-0.1,0.1-0.2,0.2
		l0,0.1h0c0.1,0,0.3,0,0.4-0.1h0c0.3,0,0.5-0.1,0.8-0.1c0.1,0,0.2,0,0.2-0.1c0.1,0,0.1,0,0.1,0c0.1,0,0.1,0,0.2,0
		c0.1,0,0.1,0,0.2-0.1c1-0.3,2.1-0.6,3-1c-1.7,2.3-3.9,4.2-6.5,5.4c1.2-0.1,2.4-0.3,3.6-0.6c4.2-1.3,7.7-4.2,9.8-8.1
		c-0.4,2.5-1.4,4.8-2.8,6.9c1-0.7,1.9-1.5,2.8-2.4c2.3-2.5,3.9-5.7,4.4-9.1c0.4,1.7,0.5,3.4,0.3,5.2c7.5-10.8,0.6-21.9-2.3-24.9
		c0,0,0,0,0-0.1c0,0,0,0,0,0c0,0,0,0,0,0c0,0.1,0,0.3,0,0.4c0,0.2-0.1,0.5-0.1,0.7c-0.1,0.2-0.1,0.5-0.2,0.7
		c-0.1,0.2-0.2,0.5-0.3,0.7c-0.1,0.2-0.2,0.4-0.3,0.7c-0.1,0.2-0.2,0.4-0.4,0.6c-0.1,0.2-0.3,0.4-0.4,0.6c-0.2,0.2-0.3,0.4-0.5,0.5
		c-0.1,0.1-0.2,0.2-0.3,0.3c-0.1,0.1-0.2,0.1-0.2,0.2c-0.2,0.1-0.4,0.3-0.6,0.4c-0.2,0.1-0.4,0.3-0.6,0.4c-0.2,0.1-0.4,0.2-0.7,0.3
		c-0.2,0.1-0.4,0.2-0.7,0.2c-0.2,0.1-0.5,0.1-0.7,0.2c-0.2,0-0.5,0.1-0.7,0.1c-0.2,0-0.3,0-0.5,0c-0.2,0-0.5,0-0.7,0
		c-0.2,0-0.5-0.1-0.7-0.1c-0.2,0-0.5-0.1-0.7-0.2h0c0.2,0,0.5,0,0.7-0.1c0.2,0,0.5-0.1,0.7-0.2c0.2-0.1,0.5-0.1,0.7-0.2
		c0.2-0.1,0.4-0.2,0.7-0.3c0.2-0.1,0.4-0.2,0.6-0.4c0.2-0.1,0.4-0.3,0.6-0.4c0.2-0.1,0.4-0.3,0.5-0.5c0.2-0.2,0.3-0.3,0.5-0.5
		c0.2-0.2,0.3-0.4,0.4-0.6c0,0,0-0.1,0.1-0.1c0.1-0.2,0.2-0.3,0.3-0.5c0.1-0.2,0.2-0.4,0.3-0.7c0.1-0.2,0.2-0.4,0.3-0.7
		c0.1-0.2,0.1-0.5,0.2-0.7c0-0.2,0.1-0.5,0.1-0.7c0-0.2,0-0.5,0-0.7c0-0.2,0-0.3,0-0.5c0-0.2-0.1-0.5-0.1-0.7c0-0.2-0.1-0.5-0.2-0.7
		c-0.1-0.2-0.1-0.5-0.2-0.7s-0.2-0.4-0.3-0.7c-0.1-0.2-0.2-0.4-0.4-0.6c-0.1-0.2-0.3-0.4-0.4-0.6c-0.2-0.2-0.3-0.4-0.5-0.5
		c-0.1-0.1-0.2-0.2-0.3-0.3c-0.5-0.4-1-0.7-1.4-1c-0.1,0-0.1-0.1-0.2-0.1C-3381,4.2-3381.4,4.1-3381.7,4L-3381.7,4z"/>
</g>
<g transform="translate(0, 300)">
	<path class="st0" d="M11.2-243.8h25.5c6.2,0,11.2,5,11.2,11.2v25.5c0,6.2-5,11.2-11.2,11.2H11.2C5-195.8,0-200.8,0-207v-25.5
		C0-238.7,5-243.8,11.2-243.8z"/>
	<path class="st1" d="M22.8-238.5c-0.1,0-0.3,0-0.6,0.1c-5.3,0.5-10.3,3.4-13.5,7.8c-1.8,2.5-2.9,5.2-3.3,8.2
		c-0.2,1-0.2,1.3-0.2,2.7c0,1.4,0,1.7,0.2,2.7c1,7,6,13,12.8,15.2c1.2,0.4,2.5,0.7,4,0.8c0.6,0.1,3,0.1,3.6,0c2.5-0.3,4.7-0.9,6.8-2
		c0.3-0.2,0.4-0.2,0.3-0.2c0,0-1.4-1.9-3.1-4.1l-3-4.1l-3.8-5.6c-2.1-3.1-3.8-5.6-3.8-5.6c0,0,0,2.5,0,5.5c0,5.3,0,5.5-0.1,5.6
		c-0.1,0.2-0.2,0.3-0.3,0.3c-0.1,0.1-0.2,0.1-0.8,0.1h-0.6l-0.2-0.1c-0.1-0.1-0.2-0.2-0.2-0.3l-0.1-0.2l0-7.3l0-7.4l0.1-0.1
		c0.1-0.1,0.2-0.2,0.3-0.2c0.2-0.1,0.2-0.1,0.8-0.1c0.7,0,0.9,0,1.1,0.2c0.1,0.1,2.1,3.1,4.5,6.8c2.4,3.7,5.8,8.7,7.4,11.2l3,4.5
		l0.2-0.1c1.3-0.9,2.7-2.1,3.9-3.4c2.4-2.7,3.9-6,4.4-9.6c0.2-1,0.2-1.3,0.2-2.7c0-1.4,0-1.7-0.2-2.7c-1-7-6-13-12.8-15.2
		c-1.2-0.4-2.5-0.7-3.9-0.8C25.5-238.5,23.1-238.5,22.8-238.5z M30.4-227.1c0.2,0.1,0.3,0.3,0.4,0.4c0,0.1,0,2.1,0,6.7l0,6.6
		l-1.2-1.8l-1.2-1.8v-4.8c0-3.1,0-4.8,0-4.9c0.1-0.2,0.2-0.4,0.4-0.5c0.2-0.1,0.2-0.1,0.8-0.1C30.2-227.2,30.3-227.2,30.4-227.1z"/>
</g>
<g transform="translate(300, 300)">
	<path class="st0" d="M-232.5-243.8h25.5c6.2,0,11.2,5,11.2,11.2v25.5c0,6.2-5,11.2-11.2,11.2h-25.5c-6.2,0-11.2-5-11.2-11.2v-25.5
		C-243.8-238.7-238.7-243.8-232.5-243.8z"/>
	<path class="st59" d="M-221.3-237.9c0.9-0.5,2.1-0.5,3,0c4.6,2.6,9.3,5.2,13.9,7.9c0.9,0.5,1.5,1.5,1.4,2.5v15.8c0,1-0.6,2-1.6,2.5
		c-4.6,2.6-9.2,5.2-13.9,7.8c-0.9,0.5-2.2,0.5-3.1-0.1c-1.4-0.8-2.8-1.6-4.2-2.4c-0.3-0.2-0.6-0.3-0.8-0.6c0.2-0.2,0.5-0.3,0.7-0.4
		c0.6-0.2,1.1-0.5,1.6-0.8c0.1-0.1,0.3-0.1,0.4,0c1.2,0.7,2.4,1.4,3.5,2.1c0.3,0.1,0.5,0,0.7-0.2c4.5-2.6,9.1-5.1,13.6-7.7
		c0.2-0.1,0.3-0.3,0.2-0.4c0-5.2,0-10.4,0-15.6c0-0.2-0.1-0.4-0.3-0.5c-4.6-2.6-9.2-5.2-13.8-7.8c-0.2-0.1-0.4-0.1-0.5,0
		c-4.6,2.6-9.2,5.2-13.8,7.8c-0.2,0.1-0.3,0.3-0.3,0.5c0,5.2,0,10.4,0,15.6c0,0.2,0.1,0.4,0.3,0.4c1.2,0.7,2.5,1.4,3.7,2.1
		c0.7,0.4,1.5,0.6,2.3,0.3c0.7-0.2,1.1-0.9,1.1-1.6c0-5.2,0-10.3,0-15.5c0-0.2,0.2-0.4,0.4-0.4c0.6,0,1.2,0,1.8,0
		c0.2,0,0.4,0.2,0.4,0.5c0,5.2,0,10.4,0,15.6c0,1.4-0.6,2.9-1.9,3.6c-1.6,0.8-3.5,0.6-5.1-0.1c-1.4-0.7-2.6-1.5-4-2.2
		c-0.9-0.5-1.6-1.5-1.6-2.5v-15.8c0-1,0.6-2,1.5-2.5C-230.5-232.7-225.9-235.3-221.3-237.9z"/>
	<path class="st59" d="M-217.2-227c2-0.1,4.2-0.1,6,0.9c1.4,0.8,2.2,2.4,2.2,3.9c0,0.2-0.3,0.3-0.5,0.3c-0.6,0-1.2,0-1.8,0
		c-0.2,0-0.4-0.2-0.4-0.4c-0.2-0.7-0.6-1.5-1.3-1.8c-1.1-0.5-2.3-0.5-3.5-0.5c-0.9,0-1.8,0.1-2.5,0.6c-0.6,0.4-0.7,1.2-0.5,1.8
		c0.2,0.4,0.7,0.6,1.1,0.7c2.4,0.6,5,0.6,7.4,1.4c1,0.3,2,1,2.3,2c0.4,1.4,0.2,3-0.7,4.1c-0.8,0.9-2,1.4-3.1,1.7
		c-1.5,0.3-3.1,0.4-4.7,0.2c-1.5-0.2-3-0.6-4.1-1.6c-1-0.8-1.4-2.2-1.4-3.4c0-0.2,0.2-0.4,0.4-0.3c0.6,0,1.2,0,1.8,0
		c0.2,0,0.4,0.2,0.4,0.4c0.1,0.7,0.4,1.5,1,1.9c1.2,0.8,2.7,0.7,4.1,0.7c1.1-0.1,2.4-0.1,3.3-0.8c0.5-0.4,0.6-1.1,0.5-1.8
		c-0.1-0.5-0.7-0.8-1.2-0.9c-2.4-0.8-5-0.5-7.4-1.3c-1-0.3-1.9-1-2.3-2c-0.5-1.4-0.3-3.1,0.8-4.2
		C-220.2-226.4-218.7-226.9-217.2-227L-217.2-227"/>
</g>
<g transform="translate(600, 300)">
	<g>
		<defs>
			<rect id="SVGID_00000015321330976535911530000006013033845844918203_" x="-487.5" y="-243.8" width="48" height="48"/>
		</defs>
		<clipPath id="SVGID_00000075872962971085081270000015724151522872041350_">
			<use xlink:href="#SVGID_00000015321330976535911530000006013033845844918203_"  style="overflow:visible;"/>
		</clipPath>
		<g style="clip-path:url(#SVGID_00000075872962971085081270000015724151522872041350_);">
			<path class="st0" d="M-450.8-243.8h-25.5c-6.2,0-11.2,5-11.2,11.2v25.5c0,6.2,5,11.2,11.2,11.2h25.5c6.2,0,11.2-5,11.2-11.2
				v-25.5C-439.5-238.7-444.5-243.8-450.8-243.8z"/>
			<g>
				<defs>
					<rect id="SVGID_00000165915028883692078050000008683003379434518967_" x="-483.2" y="-227.2" width="39.4" height="15"/>
				</defs>
				<clipPath id="SVGID_00000018946300941645055570000004400511507311133113_">
					<use xlink:href="#SVGID_00000165915028883692078050000008683003379434518967_"  style="overflow:visible;"/>
				</clipPath>
				<g style="clip-path:url(#SVGID_00000018946300941645055570000004400511507311133113_);">
					<path class="st62" d="M-483.2-227.2h39.4v12.9h-19.7v2.1h-8.8v-2.1h-10.9V-227.2z M-481-216.5h4.4v-6.4h2.2v6.4h2.2v-8.6h-8.8
						V-216.5z M-470.1-225.1v10.7h4.4v-2.1h4.4v-8.6H-470.1z M-465.7-223h2.2v4.3h-2.2V-223z M-459.1-225.1v8.6h4.4v-6.4h2.2v6.4
						h2.2v-6.4h2.2v6.4h2.2v-8.6H-459.1z"/>
					<path class="st1" d="M-481-216.5h4.4v-6.4h2.2v6.4h2.2v-8.6h-8.8V-216.5z"/>
					<path class="st1" d="M-470.1-225.1v10.7h4.4v-2.1h4.4v-8.6H-470.1z M-463.5-218.7h-2.2v-4.3h2.2V-218.7z"/>
					<path class="st1" d="M-459.1-225.1v8.6h4.4v-6.4h2.2v6.4h2.2v-6.4h2.2v6.4h2.2v-8.6H-459.1z"/>
				</g>
			</g>
		</g>
	</g>
</g>
<g transform="translate(900, 300)">
	<path class="st63" d="M-720-243.8h25.5c6.2,0,11.2,5,11.2,11.2v25.5c0,6.2-5,11.2-11.2,11.2H-720c-6.2,0-11.2-5-11.2-11.2v-25.5
		C-731.2-238.7-726.2-243.8-720-243.8z"/>
	<path class="st64" d="M-699.6-227.1l-9.5,9.5l-2.7-2.7C-702.4-229.7-701.5-228.8-699.6-227.1z"/>
	<path class="st63" d="M-709-217.4c-0.1,0-0.1,0-0.2-0.1l-2.7-2.7c-0.1-0.1-0.1-0.2,0-0.3c9.5-9.5,10.5-8.6,12.5-6.8
		c0,0,0.1,0.1,0.1,0.2c0,0.1,0,0.1-0.1,0.2l-9.5,9.5C-708.9-217.5-709-217.4-709-217.4z M-711.4-220.3l2.4,2.4l9.1-9.1
		C-701.5-228.6-702.7-229-711.4-220.3z"/>
	<path class="st64" d="M-706.3-214.9l-2.6-2.6l9.5-9.5C-696.9-224.4-700.7-220.3-706.3-214.9z"/>
	<path class="st63" d="M-706.3-214.7c-0.1,0-0.1,0-0.2-0.1l-2.6-2.6c0,0,0-0.1,0-0.2c0-0.1,0-0.1,0.1-0.2l9.5-9.5
		c0.1-0.1,0.2-0.1,0.3,0c0.6,0.5,0.9,1.3,0.9,2.1c0,2.5-2.9,5.7-7.8,10.3C-706.2-214.7-706.3-214.7-706.3-214.7z M-708.6-217.5
		c1.4,1.5,2,2,2.3,2.3c3.8-3.6,7.4-7.3,7.5-9.8c0-0.6-0.2-1.2-0.6-1.6L-708.6-217.5z"/>
	<path class="st64" d="M-711.7-220.3l1.9,1.9c0,0,0,0.1,0,0.1c0,0,0,0,0,0l-4,0.9c-0.2,0-0.4-0.1-0.4-0.3c0-0.1,0-0.2,0.1-0.3
		l2.3-2.3C-711.7-220.3-711.7-220.3-711.7-220.3z"/>
	<path class="st63" d="M-713.8-217.1c-0.3,0-0.6-0.3-0.6-0.6c0-0.2,0.1-0.3,0.2-0.4l2.3-2.3c0.1-0.1,0.3-0.1,0.4,0l1.9,1.9
		c0.1,0.1,0.1,0.3,0,0.4c0,0-0.1,0.1-0.2,0.1l-4,0.9C-713.7-217.1-713.8-217.1-713.8-217.1z M-711.7-220l-2.2,2.2c0,0-0.1,0.1,0,0.2
		c0,0.1,0.1,0.1,0.2,0.1l3.7-0.8L-711.7-220z"/>
	<path class="st64" d="M-694.5-232.4c-1.4-1.4-3.8-1.3-5.1,0.1c-1.4,1.5-1.3,3.8,0.1,5.1c1.2,1.1,3,1.3,4.4,0.5l-2.6-2.6
		L-694.5-232.4z"/>
	<path class="st63" d="M-697.1-225.9c-2.1,0-3.9-1.7-3.9-3.9c0-2.1,1.7-3.9,3.9-3.9c1,0,2,0.4,2.7,1.1c0,0,0.1,0.1,0.1,0.2
		c0,0.1,0,0.1-0.1,0.2l-3,3l2.4,2.4c0.1,0.1,0.1,0.2,0,0.3c0,0,0,0,0,0C-695.7-226.1-696.4-225.9-697.1-225.9z M-697.1-233.2
		c-1.9,0-3.4,1.5-3.4,3.4c0,1.9,1.5,3.4,3.4,3.4c0.5,0,1-0.1,1.5-0.4l-2.4-2.3c0,0-0.1-0.1-0.1-0.2c0-0.1,0-0.1,0.1-0.2l3-3
		C-695.5-232.9-696.2-233.2-697.1-233.2z"/>
	<path class="st64" d="M-694.5-232.3L-694.5-232.3l-3.3,3.1l2.5,2.5c0.2-0.2,0.5-0.3,0.7-0.5C-693.1-228.6-693.1-230.9-694.5-232.3z
		"/>
	<path class="st63" d="M-695.2-226.4c-0.1,0-0.1,0-0.2-0.1l-2.6-2.6c0,0-0.1-0.1-0.1-0.2s0-0.1,0.1-0.2l3.2-3.2
		c0.1-0.1,0.2-0.1,0.3,0l0.1,0c1.5,1.5,1.5,3.9,0,5.5c-0.2,0.2-0.5,0.4-0.7,0.6C-695.1-226.4-695.1-226.4-695.2-226.4z
		 M-697.4-229.2l2.3,2.3c0.2-0.1,0.4-0.3,0.5-0.4c1.3-1.3,1.3-3.4,0.1-4.7L-697.4-229.2z"/>
	<path class="st64" d="M-699.2-226.7c-0.5-0.5-1.4-0.5-2,0l-8.5,8.5l1.4,1.4l9-7.9C-698.6-225.2-698.6-226.1-699.2-226.7
		C-699.1-226.7-699.1-226.7-699.2-226.7z"/>
	<path class="st63" d="M-708.2-216.6c-0.1,0-0.1,0-0.2-0.1l-1.4-1.4c-0.1-0.1-0.1-0.2,0-0.3l8.5-8.5c0.6-0.6,1.6-0.6,2.3,0
		c0.6,0.6,0.6,1.6,0,2.3c0,0,0,0-0.1,0.1l-9,7.9C-708.1-216.6-708.1-216.6-708.2-216.6z M-709.3-218.3l1.1,1.1l8.8-7.7
		c0.5-0.4,0.5-1.1,0.1-1.6s-1.1-0.5-1.6-0.1c0,0,0,0-0.1,0.1L-709.3-218.3z"/>
	<path class="st64" d="M-716.1-208.6c-0.1,0-0.1,0.1-0.1,0.2l0.4,1.6c0.1,0.2,0,0.5-0.3,0.6c-0.2,0.1-0.4,0-0.5-0.1l-2.5-2.4
		l8.1-8.1l2.8,0l1.9,1.9C-706.8-214.6-709.5-211.9-716.1-208.6z"/>
	<path class="st63" d="M-716.3-206c-0.2,0-0.4-0.1-0.5-0.2l-2.4-2.4c0,0-0.1-0.1-0.1-0.2c0-0.1,0-0.1,0.1-0.2l8.1-8.1
		c0,0,0.1-0.1,0.2-0.1l2.8,0c0.1,0,0.1,0,0.2,0.1l1.9,1.9c0,0,0.1,0.1,0.1,0.2c0,0.1,0,0.1-0.1,0.2l-0.2,0.1
		c-2.4,2.1-5.6,4.2-9.6,6.2l0.4,1.6c0.1,0.3-0.1,0.6-0.3,0.8C-716-206-716.1-206-716.3-206z M-718.7-208.8l2.3,2.3
		c0.1,0.1,0.2,0.2,0.3,0.1c0.1-0.1,0.2-0.2,0.1-0.3l-0.4-1.6c0-0.2,0-0.4,0.2-0.5c4-2,7.2-4.1,9.5-6.1l-1.7-1.7l-2.6,0L-718.7-208.8
		z"/>
	<path class="st64" d="M-721-206.9l1.9-1.9l2.9,2.9l-4.6-0.3c-0.2,0-0.3-0.2-0.3-0.4C-721.1-206.7-721-206.8-721-206.9z"/>
	<path class="st63" d="M-716.2-205.7l-4.6-0.3c-0.3,0-0.6-0.3-0.5-0.7c0-0.1,0.1-0.3,0.2-0.4l1.9-1.9c0.1-0.1,0.2-0.1,0.3,0l2.9,2.9
		c0.1,0.1,0.1,0.2,0,0.2C-716-205.8-716.1-205.7-716.2-205.7z M-719-208.5l-1.8,1.8c-0.1,0-0.1,0.2,0,0.2c0,0,0,0,0.1,0l4,0.3
		L-719-208.5z"/>
	<path class="st63" d="M-711.8-215.8c-0.1,0-0.2-0.1-0.2-0.2c0-0.1,0-0.1,0.1-0.2l2.2-2.2c0.1-0.1,0.2-0.1,0.3,0l1.4,1.4
		c0.1,0.1,0.1,0.1,0.1,0.2c0,0.1-0.1,0.1-0.2,0.2L-711.8-215.8C-711.8-215.8-711.8-215.8-711.8-215.8z M-709.6-217.9l-1.5,1.5
		l2.4-0.5L-709.6-217.9z"/>
	<path class="st64" d="M-708.2-216.8l-2.5,0.5c-0.2,0-0.4-0.1-0.4-0.2c0-0.1,0-0.2,0.1-0.3l1.4-1.4L-708.2-216.8z"/>
	<path class="st63" d="M-710.7-216.1c-0.3,0-0.6-0.2-0.6-0.6c0-0.2,0.1-0.3,0.2-0.4l1.4-1.4c0.1-0.1,0.2-0.1,0.3,0l1.4,1.4
		c0.1,0.1,0.1,0.1,0.1,0.2c0,0.1-0.1,0.1-0.2,0.2l-2.5,0.5C-710.7-216.1-710.7-216.1-710.7-216.1z M-709.6-217.9l-1.2,1.2
		c0,0,0,0.1,0,0.1c0,0,0.1,0.1,0.1,0.1l2.1-0.4L-709.6-217.9z"/>
	<path class="st63" d="M-694.5-230.2c0-0.1-0.2-0.2-0.3-0.2c-0.1,0-0.2,0.2-0.2,0.3c0,0,0,0,0,0.1c0.1,0.3,0.1,0.6-0.1,0.9
		c-0.1,0.1-0.1,0.3,0,0.4c0.1,0.1,0.3,0.1,0.4,0C-694.3-229.2-694.2-229.7-694.5-230.2z"/>
</g>
<g transform="translate(1200, 300)">
	<path class="st0" d="M-963.8-243.8h25.5c6.2,0,11.2,5,11.2,11.2v25.5c0,6.2-5,11.2-11.2,11.2h-25.5c-6.2,0-11.2-5-11.2-11.2v-25.5
		C-975-238.7-970-243.8-963.8-243.8z"/>
	<path class="st65" d="M-951-216.2c1.9,0,3.5-1.6,3.5-3.5s-1.6-3.5-3.5-3.5c-1.9,0-3.5,1.6-3.5,3.5S-952.9-216.2-951-216.2z"/>
	<path class="st66" d="M-951-226.8c4.7,0,9.1,0.7,12.3,1.8c4,1.4,6.4,3.4,6.4,5.3c0,2-2.6,4.1-6.8,5.6c-3.2,1.1-7.5,1.6-11.9,1.6
		c-4.6,0-8.9-0.5-12.2-1.6c-4.1-1.4-6.6-3.6-6.6-5.5c0-1.9,2.3-3.9,6.2-5.3C-960.2-226.1-955.7-226.8-951-226.8L-951-226.8z"/>
	<path class="st66" d="M-957.2-223.2c2.3-4.1,5.1-7.5,7.7-9.8c3.2-2.8,6.2-3.8,7.8-2.9c1.7,1,2.3,4.3,1.4,8.7
		c-0.7,3.3-2.3,7.3-4.5,11.1c-2.3,4-4.9,7.4-7.5,9.7c-3.3,2.9-6.4,3.9-8.1,2.9c-1.6-0.9-2.2-4-1.5-8
		C-961.2-214.9-959.6-219.1-957.2-223.2L-957.2-223.2z"/>
	<path class="st66" d="M-957.2-216.1c-2.4-4.1-4-8.2-4.6-11.6c-0.8-4.1-0.2-7.3,1.4-8.2c1.7-1,4.9,0.2,8.2,3.1
		c2.5,2.3,5.1,5.6,7.4,9.5c2.3,4,4,8,4.7,11.3c0.8,4.3,0.2,7.5-1.5,8.5c-1.6,0.9-4.5-0.1-7.7-2.8C-952-208.5-954.8-212-957.2-216.1z
		"/>
</g>
<g transform="translate(1500, 300)">
	<path class="st67" d="M-1207.5-243.8h25.5c6.2,0,11.2,5,11.2,11.2v25.5c0,6.2-5,11.2-11.2,11.2h-25.5c-6.2,0-11.2-5-11.2-11.2
		v-25.5C-1218.8-238.7-1213.7-243.8-1207.5-243.8z"/>
	<path class="st1" d="M-1187.5-212.7c1.4-0.1,2.4-1.3,2.4-2.8c0-1.4-1.2-2.6-2.7-2.6h-0.1c-1.5,0-2.6,1.3-2.6,2.8
		c0,0.7,0.3,1.3,0.8,1.8c-1.6,3.2-4.1,5.5-7.8,7.5c-2.5,1.3-5.2,1.8-7.8,1.5c-2.1-0.3-3.8-1.2-4.9-2.8c-1.5-2.3-1.7-4.9-0.4-7.4
		c0.9-1.8,2.3-3.1,3.2-3.8c-0.2-0.6-0.5-1.7-0.6-2.4c-6.9,5-6.2,11.8-4.1,15c1.6,2.4,4.8,3.9,8.3,3.9c1,0,1.9-0.1,2.9-0.3
		C-1194.8-203.7-1190.1-207.3-1187.5-212.7L-1187.5-212.7z"/>
	<path class="st1" d="M-1179.1-218.6c-3.6-4.2-9-6.6-15.1-6.6h-0.8c-0.4-0.9-1.3-1.4-2.3-1.4h-0.1c-1.5,0-2.6,1.3-2.6,2.8
		c0,1.4,1.2,2.6,2.7,2.6h0.1c1,0,2-0.7,2.3-1.6h0.9c3.6,0,7.1,1,10.2,3.1c2.4,1.6,4.1,3.6,5.1,6.1c0.8,2,0.8,4-0.1,5.6
		c-1.3,2.5-3.6,3.9-6.5,3.9c-1.9,0-3.7-0.6-4.7-1c-0.5,0.5-1.5,1.2-2.1,1.7c2.1,1,4.2,1.5,6.2,1.5c4.6,0,8-2.5,9.3-5.1
		C-1175.4-209.8-1175.5-214.6-1179.1-218.6z"/>
	<path class="st1" d="M-1203.4-211.9c0,1.4,1.2,2.6,2.7,2.6h0.1c1.5,0,2.6-1.3,2.6-2.8c0-1.4-1.2-2.6-2.7-2.6h-0.1
		c-0.1,0-0.2,0-0.3,0c-2-3.2-2.8-6.8-2.5-10.6c0.2-2.9,1.1-5.3,2.8-7.4c1.4-1.8,4.1-2.6,5.9-2.7c5.1-0.1,7.2,6.2,7.3,8.7
		c0.6,0.1,1.7,0.5,2.4,0.7c-0.6-7.7-5.3-11.7-9.9-11.7c-4.3,0-8.3,3.1-9.8,7.7c-2.2,6.1-0.8,12,1.9,16.6
		C-1203.3-212.9-1203.4-212.4-1203.4-211.9L-1203.4-211.9z"/>
</g>
<g transform="translate(1800, 300)">
	<path class="st0" d="M-1451.2-243.8h25.5c6.2,0,11.2,5,11.2,11.2v25.5c0,6.2-5,11.2-11.2,11.2h-25.5c-6.2,0-11.2-5-11.2-11.2v-25.5
		C-1462.5-238.7-1457.5-243.8-1451.2-243.8z"/>
	
		<linearGradient id="SVGID_00000002372060722652105110000015638379872903993242_" gradientUnits="userSpaceOnUse" x1="-2177.6023" y1="-1814.8519" x2="-2124.1724" y2="-1827.3419" gradientTransform="matrix(0.1875 0 0 -0.1875 -1034 -558.8125)">
		<stop  offset="0" style="stop-color:#FF6533"/>
		<stop  offset="0.157" style="stop-color:#FF5633"/>
		<stop  offset="0.434" style="stop-color:#FF4333"/>
		<stop  offset="0.714" style="stop-color:#FF3733"/>
		<stop  offset="1" style="stop-color:#FF3333"/>
	</linearGradient>
	<path style="fill:url(#SVGID_00000002372060722652105110000015638379872903993242_);" d="M-1424.3-226.1c0-2.2-0.6-4.2-1.6-6
		c-2.7-2.8-8.5-3.4-9.9,0c-1.5,3.5,2.5,7.3,4.2,7c2.2-0.4-0.4-5.5-0.4-5.5c3.4,6.4,2.6,4.4-3.5,10.3c-6.1,5.8-12.4,18.2-13.3,18.7
		c0,0-0.1,0-0.1,0.1h24c0.4,0,0.7-0.4,0.5-0.8l-6.3-12.4c-0.1-0.3,0-0.6,0.2-0.8C-1426.8-217.6-1424.3-221.5-1424.3-226.1z"/>
	
		<linearGradient id="SVGID_00000145778133277693191020000015332219206915669650_" gradientUnits="userSpaceOnUse" x1="-2185.9534" y1="-1797.1552" x2="-2090.1958" y2="-1871.4021" gradientTransform="matrix(0.1875 0 0 -0.1875 -1034 -558.8125)">
		<stop  offset="0" style="stop-color:#BF3338"/>
		<stop  offset="1" style="stop-color:#FF3333"/>
	</linearGradient>
	<path style="fill:url(#SVGID_00000145778133277693191020000015332219206915669650_);" d="M-1424.3-226.1c0-2.2-0.6-4.2-1.6-6
		c-2.7-2.8-8.5-3.4-9.9,0c-1.5,3.5,2.5,7.3,4.2,7c2.2-0.4-0.4-5.5-0.4-5.5c3.4,6.4,2.6,4.4-3.5,10.3c-6.1,5.8-12.4,18.2-13.3,18.7
		c0,0-0.1,0-0.1,0.1h24c0.4,0,0.7-0.4,0.5-0.8l-6.3-12.4c-0.1-0.3,0-0.6,0.2-0.8C-1426.8-217.6-1424.3-221.5-1424.3-226.1z"/>
	
		<linearGradient id="SVGID_00000173151432774674945170000012683808473575055550_" gradientUnits="userSpaceOnUse" x1="-2182.865" y1="-1811.819" x2="-2168.9871" y2="-1826.391" gradientTransform="matrix(0.1875 0 0 -0.1875 -1034 -558.8125)">
		<stop  offset="0" style="stop-color:#FF6533"/>
		<stop  offset="0.157" style="stop-color:#FF5633"/>
		<stop  offset="0.434" style="stop-color:#FF4333"/>
		<stop  offset="0.714" style="stop-color:#FF3733"/>
		<stop  offset="1" style="stop-color:#FF3333"/>
	</linearGradient>
	<path style="fill:url(#SVGID_00000173151432774674945170000012683808473575055550_);" d="M-1448.8-201.5
		c0.9-0.5,7.2-12.9,13.3-18.7c6.1-5.9,6.9-3.9,3.5-10.3c0,0-12.9,18.2-17.6,27.1"/>
	
		<linearGradient id="SVGID_00000094618349616726741580000010611735181691260825_" gradientUnits="userSpaceOnUse" x1="-2157.5798" y1="-1836.8804" x2="-2161.7439" y2="-1777.2052" gradientTransform="matrix(0.1875 0 0 -0.1875 -1034 -558.8125)">
		<stop  offset="0" style="stop-color:#FF6533"/>
		<stop  offset="0.157" style="stop-color:#FF5633"/>
		<stop  offset="0.434" style="stop-color:#FF4333"/>
		<stop  offset="0.714" style="stop-color:#FF3733"/>
		<stop  offset="1" style="stop-color:#FF3333"/>
	</linearGradient>
	<path style="fill:url(#SVGID_00000094618349616726741580000010611735181691260825_);" d="M-1447-217.8c8.7-16.1,9.9-17.7,14.4-17.7
		c2.4,0,4.8,1.1,6.4,3c-2.1-3.4-5.9-5.7-10.2-5.8h-14.8c-0.3,0-0.6,0.3-0.6,0.6v29.9C-1450.9-210.1-1449.4-213.3-1447-217.8z"/>
	
		<linearGradient id="SVGID_00000041979723274093968030000008087389209987990156_" gradientUnits="userSpaceOnUse" x1="-2175.6504" y1="-1810.78" x2="-2155.9375" y2="-1824.1849" gradientTransform="matrix(0.1875 0 0 -0.1875 -1034 -558.8125)">
		<stop  offset="0" style="stop-color:#FBB040"/>
		<stop  offset="1" style="stop-color:#FB8840"/>
	</linearGradient>
	<path style="fill:url(#SVGID_00000041979723274093968030000008087389209987990156_);" d="M-1435.5-220.3
		c-6.1,5.8-12.4,18.2-13.3,18.7c-0.9,0.5-2.4,0.6-3.2-0.3c-0.9-1-2.2-2.5,5.1-15.9c8.7-16.1,9.9-17.7,14.4-17.7c2.4,0,4.8,1.1,6.4,3
		c0.1,0.1,0.2,0.3,0.3,0.4c-2.7-2.8-8.5-3.4-9.9,0c-1.5,3.5,2.5,7.3,4.2,7c2.2-0.4-0.4-5.5-0.4-5.5
		C-1428.6-224.2-1429.4-226.1-1435.5-220.3z"/>
	
		<linearGradient id="SVGID_00000016776141106646197120000005257947926573363090_" gradientUnits="userSpaceOnUse" x1="-2155.5725" y1="-1734.9734" x2="-2175.6956" y2="-1956.3252" gradientTransform="matrix(0.1875 0 0 -0.1875 -1034 -558.8125)">
		<stop  offset="0" style="stop-color:#FFFFFF"/>
		<stop  offset="1" style="stop-color:#FFFFFF;stop-opacity:0"/>
	</linearGradient>
	<path style="opacity:0.3;fill:url(#SVGID_00000016776141106646197120000005257947926573363090_);enable-background:new    ;" d="
		M-1446.2-217.1c8.7-16.1,9.9-17.7,14.4-17.7c2,0,4,0.7,5.5,2.1c-1.6-1.8-3.9-2.8-6.2-2.8c-4.6,0-5.7,1.6-14.4,17.7
		c-7.3,13.4-5.9,15-5.1,15.9c0.1,0.1,0.3,0.3,0.4,0.4C-1452.4-202.6-1452.7-205.2-1446.2-217.1z"/>
</g>
<g transform="translate(2100, 300)">
	<path class="st0" d="M-1695-243.8h25.5c6.2,0,11.2,5,11.2,11.2v25.5c0,6.2-5,11.2-11.2,11.2h-25.5c-6.2,0-11.2-5-11.2-11.2v-25.5
		C-1706.2-238.7-1701.2-243.8-1695-243.8z"/>
	
		<linearGradient id="SVGID_00000102514284652488644530000002012312594289143449_" gradientUnits="userSpaceOnUse" x1="-2495.9839" y1="-1752.3655" x2="-2418.9839" y2="-1863.8655" gradientTransform="matrix(0.1875 0 0 -0.1875 -1221.5 -558.8125)">
		<stop  offset="0" style="stop-color:#32B1C1"/>
		<stop  offset="1" style="stop-color:#14C6B7"/>
	</linearGradient>
	<path style="fill-rule:evenodd;clip-rule:evenodd;fill:url(#SVGID_00000102514284652488644530000002012312594289143449_);" d="
		M-1690.7-223.1c1.1-4.5,3.9-6.8,8.4-6.8c6.8,0,7.6,5.1,11,5.9c2.3,0.6,4.2-0.3,5.9-2.5c-1.1,4.5-3.9,6.8-8.4,6.8
		c-6.8,0-7.6-5.1-11-5.9C-1687-226.2-1689-225.4-1690.7-223.1z M-1699.1-213c1.1-4.5,3.9-6.8,8.4-6.8c6.8,0,7.6,5.1,11,5.9
		c2.3,0.6,4.2-0.3,5.9-2.5c-1.1,4.5-3.9,6.8-8.4,6.8c-6.8,0-7.6-5.1-11-5.9C-1695.5-216.1-1697.4-215.3-1699.1-213z"/>
</g>
<g transform="translate(2400, 300)">
	<path class="st0" d="M-1938.8-243.8h25.5c6.2,0,11.2,5,11.2,11.2v25.5c0,6.2-5,11.2-11.2,11.2h-25.5c-6.2,0-11.2-5-11.2-11.2v-25.5
		C-1950-238.7-1945-243.8-1938.8-243.8z"/>
	<path class="st75" d="M-1932.5-201.9l-8.1-32.8l32.5,9.4L-1932.5-201.9z"/>
	<path class="st75" d="M-1924.4-230.1l4,16.4l-16.2-4.7L-1924.4-230.1z"/>
	<path class="st75" d="M-1928.4-216.1l-2-8.1l8.1,2.3L-1928.4-216.1z"/>
	<path class="st75" d="M-1932.4-232.4l2,8.1l-8.1-2.3L-1932.4-232.4z"/>
	<path class="st75" d="M-1916.3-227.8l2,8.1l-8.1-2.3L-1916.3-227.8z"/>
	<path class="st75" d="M-1928.4-216.1l2,8.1l-8.1-2.3L-1928.4-216.1z"/>
</g>
<g transform="translate(2700, 300)">
	<path class="st76" d="M-2182.5-243.8h25.5c6.2,0,11.2,5,11.2,11.2v25.5c0,6.2-5,11.2-11.2,11.2h-25.5c-6.2,0-11.2-5-11.2-11.2
		v-25.5C-2193.8-238.7-2188.7-243.8-2182.5-243.8z"/>
	<path class="st1" d="M-2183.1-219.6l0,2h3.1h3.1v8.9v8.9h2.2h2.2v-8.9v-8.9h3.1h3.1v-1.9c0-1.1,0-2-0.1-2c0,0-3.8,0-8.4,0l-8.4,0
		L-2183.1-219.6z"/>
	<path class="st1" d="M-2155-221.6c1.2,0.3,2.1,0.8,3,1.7c0.4,0.5,1.1,1.3,1.2,1.5c0,0.1-2.1,1.5-3.3,2.2c0,0-0.2-0.2-0.4-0.5
		c-0.6-0.9-1.3-1.3-2.3-1.4c-1.5-0.1-2.4,0.7-2.4,1.9c0,0.4,0.1,0.6,0.2,0.9c0.3,0.7,0.9,1.1,2.8,1.9c3.4,1.5,4.9,2.5,5.8,3.8
		c1,1.5,1.2,4,0.6,5.9c-0.8,2-2.7,3.4-5.3,3.8c-0.8,0.1-2.8,0.1-3.7,0c-1.9-0.3-3.8-1.3-4.9-2.5c-0.4-0.5-1.3-1.8-1.2-1.9
		c0,0,0.2-0.2,0.4-0.3c0.2-0.1,1-0.6,1.8-1l1.4-0.8l0.3,0.4c0.4,0.6,1.3,1.5,1.8,1.7c1.5,0.8,3.6,0.7,4.7-0.2
		c0.4-0.4,0.6-0.8,0.6-1.4c0-0.6-0.1-0.8-0.4-1.2c-0.4-0.5-1.1-1-3.3-1.9c-2.5-1.1-3.5-1.7-4.5-2.8c-0.6-0.6-1.1-1.6-1.3-2.4
		c-0.2-0.7-0.2-2.4-0.1-3.1c0.5-2.4,2.3-4.1,4.9-4.6C-2157.8-221.9-2155.8-221.8-2155-221.6z"/>
</g>
<g transform="translate(3000, 300)">
	<path class="st0" d="M-2426.2-243.8h25.5c6.2,0,11.2,5,11.2,11.2v25.5c0,6.2-5,11.2-11.2,11.2h-25.5c-6.2,0-11.2-5-11.2-11.2v-25.5
		C-2437.5-238.7-2432.5-243.8-2426.2-243.8z"/>
	<path class="st77" d="M-2397-212.3v-17.5l-15.1-8.7v6.7l5.9,3.4c0.2,0.1,0.2,0.5,0,0.6l-7.1,4.1c-0.2,0.1-0.5,0.1-0.7,0l-7.1-4.1
		c-0.2-0.1-0.2-0.5,0-0.6l5.9-3.4v-6.7l-15.1,8.7v17.5v-0.1v0.1l5.8-3.3v-6.9c0-0.2,0.3-0.4,0.5-0.3l7.1,4.1
		c0.2,0.1,0.3,0.3,0.3,0.6v8.1c0,0.2-0.3,0.4-0.5,0.3l-5.9-3.4l-5.8,3.3l15.1,8.7l15.1-8.7l-5.8-3.3l-5.9,3.4
		c-0.2,0.1-0.5,0-0.5-0.3v-8.1c0-0.2,0.1-0.5,0.3-0.6l7.1-4.1c0.2-0.1,0.5,0,0.5,0.3v6.9L-2397-212.3z"/>
	<path class="st78" d="M-2413.6-201l15.1-8.7l-5.8-3.3l-5.9,3.4c-0.2,0.1-0.5,0-0.5-0.3v-8.1c0-0.2,0.1-0.5,0.3-0.6l7.1-4.1
		c0.2-0.1,0.5,0,0.5,0.3v6.9l5.8,3.3v-17.5l-16.6,9.6V-201z"/>
	<path class="st1" d="M-2412.2-238.5v6.7l5.9,3.4c0.2,0.1,0.2,0.5,0,0.6l-7.1,4.1c-0.2,0.1-0.5,0.1-0.7,0l-7-4.1
		c-0.2-0.1-0.2-0.5,0-0.6l5.9-3.4v-6.7l-15.1,8.7l16.6,9.6l16.6-9.6L-2412.2-238.5z"/>
	<path class="st77" d="M-2417-209.7l-5.9-3.4l-5.8,3.3l15.1,8.7v-19.2l-16.6-9.5v17.5v-0.1v0.1l5.8-3.3v-6.9c0-0.2,0.3-0.4,0.5-0.3
		l7.1,4.1c0.2,0.1,0.3,0.3,0.3,0.6v8.1C-2416.5-209.7-2416.8-209.6-2417-209.7z"/>
</g>
<g transform="translate(3300, 300)">
	<path class="st0" d="M-2670-243.8h25.5c6.2,0,11.2,5,11.2,11.2v25.5c0,6.2-5,11.2-11.2,11.2h-25.5c-6.2,0-11.2-5-11.2-11.2v-25.5
		C-2681.2-238.7-2676.2-243.8-2670-243.8z"/>
	
		<linearGradient id="SVGID_00000013884008777753696740000013943533097026625982_" gradientUnits="userSpaceOnUse" x1="-3707.4553" y1="-1686.4634" x2="-3590.6741" y2="-1845.0614" gradientTransform="matrix(0.1875 0 0 -0.1875 -1971.5 -558.8125)">
		<stop  offset="0" style="stop-color:#41D1FF"/>
		<stop  offset="1" style="stop-color:#BD34FE"/>
	</linearGradient>
	<path style="fill:url(#SVGID_00000013884008777753696740000013943533097026625982_);" d="M-2638.7-232.9l-17.6,31.5
		c-0.4,0.6-1.3,0.7-1.7,0l-17.9-31.5c-0.4-0.7,0.2-1.6,1-1.4l17.6,3.1c0.1,0,0.2,0,0.3,0l17.2-3.1
		C-2638.9-234.5-2638.3-233.7-2638.7-232.9z"/>
	
		<linearGradient id="SVGID_00000058556916099069926150000002832739799543772070_" gradientUnits="userSpaceOnUse" x1="-3652.3865" y1="-1710.5612" x2="-3631.2615" y2="-1855.4779" gradientTransform="matrix(0.1875 0 0 -0.1875 -1971.5 -558.8125)">
		<stop  offset="0" style="stop-color:#FFEA83"/>
		<stop  offset="8.333330e-02" style="stop-color:#FFDD35"/>
		<stop  offset="1" style="stop-color:#FFA800"/>
	</linearGradient>
	<path style="fill:url(#SVGID_00000058556916099069926150000002832739799543772070_);" d="M-2648.9-238.5l-13,2.6
		c-0.2,0-0.4,0.2-0.4,0.4l-0.8,13.5c0,0.3,0.3,0.6,0.6,0.5l3.6-0.8c0.3-0.1,0.6,0.2,0.6,0.6l-1.1,5.3c-0.1,0.4,0.3,0.7,0.6,0.6
		l2.2-0.7c0.3-0.1,0.7,0.2,0.6,0.6l-1.7,8.3c-0.1,0.5,0.6,0.8,0.9,0.4l0.2-0.3l10.6-21.2c0.2-0.4-0.1-0.8-0.5-0.7l-3.7,0.7
		c-0.4,0.1-0.6-0.3-0.6-0.6l2.4-8.4C-2648.2-238.2-2648.5-238.6-2648.9-238.5z"/>
</g>
<g transform="translate(3600, 300)">
	<path class="st0" d="M-2913.8-243.8h25.5c6.2,0,11.2,5,11.2,11.2v25.5c0,6.2-5,11.2-11.2,11.2h-25.5c-6.2,0-11.2-5-11.2-11.2v-25.5
		C-2925-238.7-2920-243.8-2913.8-243.8z"/>
	<path class="st1" d="M-2901-240.4l18.2,10.3v20.6l-18.2,10.3l-18.2-10.3v-20.6L-2901-240.4z"/>
	<path class="st81" d="M-2886-210.1l-14.4,8.1v-6.3l9-4.9L-2886-210.1z M-2885-211v-17l-5.3,3v10.9L-2885-211z M-2916-210.1
		l14.4,8.1v-6.3l-9-4.9L-2916-210.1L-2916-210.1z M-2917-211v-17l5.3,3v10.9L-2917-211L-2917-211z M-2916.4-229.1l14.7-8.3v6.1
		l-9.4,5.2l-0.1,0L-2916.4-229.1L-2916.4-229.1z M-2885.6-229.1l-14.7-8.3v6.1l9.4,5.2l0.1,0L-2885.6-229.1L-2885.6-229.1z"/>
	<path class="st82" d="M-2901.6-209.8l-8.8-4.9v-9.6l8.8,5.1V-209.8z M-2900.4-209.8l8.8-4.9v-9.6l-8.8,5.1V-209.8z M-2909.9-225.4
		l8.9-4.9l8.9,4.9l-8.9,5.1L-2909.9-225.4L-2909.9-225.4z"/>
</g>
<g transform="translate(3900, 300)">
	<g>
		<defs>
			<rect id="SVGID_00000038405227854919412630000009818425366734907792_" x="-3168.8" y="-243.8" width="48" height="48"/>
		</defs>
		<clipPath id="SVGID_00000045600799208060437220000004529056069325343638_">
			<use xlink:href="#SVGID_00000038405227854919412630000009818425366734907792_"  style="overflow:visible;"/>
		</clipPath>
		<g style="clip-path:url(#SVGID_00000045600799208060437220000004529056069325343638_);">
			<path class="st0" d="M-3132-243.8h-25.5c-6.2,0-11.2,5-11.2,11.2v25.5c0,6.2,5,11.2,11.2,11.2h25.5c6.2,0,11.2-5,11.2-11.2v-25.5
				C-3120.8-238.7-3125.8-243.8-3132-243.8z"/>
			<g>
				<defs>
					<rect id="SVGID_00000065036894571871365910000006647299367967822012_" x="-3163.5" y="-238.5" width="37.5" height="37.5"/>
				</defs>
				<clipPath id="SVGID_00000100365475080350438890000011354222110070999455_">
					<use xlink:href="#SVGID_00000065036894571871365910000006647299367967822012_"  style="overflow:visible;"/>
				</clipPath>
				<g style="clip-path:url(#SVGID_00000100365475080350438890000011354222110070999455_);">
					<path class="st85" d="M-3144.7-238.5c10.2,0,18.5,8.2,18.7,18.2c0.3,10.8-8.5,19.5-19.2,19.3c-9.9-0.2-17.9-8.2-18.3-17.9
						C-3164-229.6-3155.4-238.5-3144.7-238.5z"/>
					<path class="st86" d="M-3151.6-225.4c0.1-0.5,0.3-0.9,0.5-1.4c0.2-0.4,0.5-0.7,1-0.9c0.3-0.1,0.6-0.3,0.8-0.5
						c0.9-0.9,1.9-1.4,3.1-1.5c0.2,0,0.3-0.1,0.4-0.3c0.2-0.4,0.4-0.9,0.7-1.3c0.4-0.5,0.9-0.9,1.6-0.8c0.4,0,0.8,0.2,1.1,0.6
						c0.3,0.4,0.5,0.8,0.7,1.3c0.1,0.1,0.1,0.2,0.3,0.2c0.6-0.1,1.2,0.1,1.5,0.7c0.3,0.7,0.5,1.5,0.6,2.2c0.2,1.6,0.1,3.1-0.5,4.7
						c-0.3,0.9-0.8,1.7-1.3,2.5c-0.1,0.1-0.1,0.2,0,0.3c1.4,1.6,2.2,3.5,2.1,5.7v0.2c0.1,0,0.2-0.1,0.3-0.1c0.6-0.3,1.2-0.7,1.9-1.1
						c0.9-0.5,1.9-0.8,2.9-0.8c1.5,0,2.5,1.5,1.9,2.8c-0.3,0.5-0.7,0.9-1.2,1c-1,0.2-1.9,0.7-2.8,1.3c-1.4,1-3,1.7-4.6,2.2
						c-0.1,0-0.2,0.1-0.3,0.2c-0.4,0.3-1,0.5-1.5,0.5c-1.6,0.2-3.2,0.3-4.9,0.4c-0.7,0-1.3-0.1-1.9-0.4c-0.2-0.1-0.3-0.3-0.5-0.3
						c-0.2,0-0.3,0.1-0.5,0.2c-1,0.2-2,0-2.9-0.5c-0.5-0.3-0.8-0.8-0.8-1.5c0-0.2,0-0.3-0.1-0.4c-0.4-0.6-0.6-1.3-0.8-2
						c-0.2-1.4,0.3-2.6,1.2-3.7c0.1-0.1,0.1-0.2,0.1-0.3c0-1.4,0.3-2.8,1-4.1c0.4-0.7,0.9-1.3,1.5-1.8c0.1-0.1,0.1-0.2,0-0.3
						c-0.3-0.4-0.4-0.9-0.5-1.3c-0.1-0.1,0-0.2-0.1-0.3c0-0.1,0-0.2,0-0.2v-0.5c0-0.1,0-0.2,0-0.2
						C-3151.7-225.3-3151.7-225.3-3151.6-225.4z"/>
					<path class="st87" d="M-3151.7-224.3c0,0.1,0,0.2,0.1,0.3c0,0,0,0.1,0,0C-3151.7-224-3151.7-224.2-3151.7-224.3
						c-0.1-0.4-0.1-0.8,0-1.2c0,0,0,0.1,0,0.1c0,0,0,0.1,0,0.1c0,0.1,0,0.2,0,0.2v0.5C-3151.7-224.4-3151.7-224.4-3151.7-224.3z"/>
					<path class="st85" d="M-3140.1-213.8c0,0.4-0.1,0.7-0.1,1.1c0,0.3,0,0.4,0.3,0.3c0.7-0.1,1.4-0.4,2-0.8
						c0.7-0.4,1.3-0.8,2.1-1.1c0.6-0.2,1.2-0.4,1.8-0.4c0.5,0,0.9,0.3,1,0.8c0.1,0.4-0.2,0.8-0.6,0.9c-1.2,0.3-2.3,0.9-3.3,1.5
						c-1.4,0.9-2.9,1.5-4.4,2c-0.1,0-0.1,0-0.2,0.1c-0.4,0.4-0.9,0.5-1.3,0.5c-1.4,0.2-2.8,0.3-4.2,0.3c-0.4,0-0.8,0-1.2,0
						c-0.6-0.1-0.9-0.4-1-0.9c-0.1-0.5,0.1-0.9,0.6-1.2c0,0,0.1-0.1,0.2-0.1c-0.3-0.2-0.5-0.3-0.6-0.6c-0.1-0.1-0.1,0-0.1,0
						c-0.1,0.3-0.2,0.6-0.2,0.9c-0.1,0.2-0.1,0.4-0.2,0.6c-0.2,0.5-0.7,0.8-1.2,0.9c-0.6,0.1-1.1-0.1-1.7-0.3
						c-0.4-0.2-0.5-0.4-0.3-0.8c0.1-0.2,0.2-0.4,0.3-0.6c-0.5,0.1-0.7-0.2-0.9-0.5c-0.4-0.8-0.5-1.6-0.4-2.4c0.1-0.7,0.5-1.2,1-1.7
						c0.3-0.3,0.4-0.5,0.3-0.9c-0.1-2.2,0.8-4.1,2.5-5.5c0.2-0.1,0.3-0.3,0.5-0.4c0.1-0.1,0.1-0.1,0-0.2c-0.4-0.6-0.8-1.2-1-1.9
						c-0.2-0.8,0.1-1.5,0.5-2.2c0.1-0.1,0.1-0.1,0.2-0.2c0.5-0.2,0.9-0.5,1.3-0.8c0.9-0.9,1.9-1.3,3.2-1.2c0.2,0,0.2,0,0.3-0.2
						c0.2-0.5,0.4-1.1,0.7-1.5c0.1-0.2,0.2-0.3,0.4-0.5c0.3-0.3,0.6-0.2,0.8,0.1c0.4,0.6,0.7,1.3,1,1.9c0.1,0.2,0.1,0.2,0.3,0.1
						c0.2-0.1,0.4-0.2,0.7-0.3c0.2-0.1,0.3,0,0.4,0.2c0.2,0.6,0.4,1.1,0.4,1.7c0,0.2,0.1,0.3,0,0.5c0,0.4,0,0.7,0,1.1
						c0,0.2-0.1,0.3,0,0.5c0,1-0.3,1.9-0.7,2.8c-0.4,0.8-0.9,1.6-1.4,2.3c-0.2,0.3-0.2,0.3,0.1,0.5c1.3,1.2,2,2.6,2.2,4.3
						c0,0.1,0,0.1,0,0.2c-0.1,0.2,0,0.3,0,0.5C-3140.1-214.2-3140.2-214-3140.1-213.8z"/>
					<path class="st88" d="M-3140.4-225.1c0,0,0-0.1,0-0.2v-1.3c0-0.1,0-0.1,0-0.2C-3140.3-226.1-3140.3-225.6-3140.4-225.1z"/>
					<path class="st89" d="M-3140.1-213.8c-0.1-0.3,0-0.6,0-1c0-0.1,0-0.1,0-0.2C-3140.1-214.6-3140.1-214.2-3140.1-213.8z"/>
					<path class="st85" d="M-3151.7-225c0-0.1,0-0.2,0-0.2C-3151.7-225.2-3151.7-225.1-3151.7-225z M-3151.7-224.3
						c-0.1-0.1,0-0.1,0-0.2C-3151.7-224.4-3151.7-224.4-3151.7-224.3z"/>
				</g>
			</g>
		</g>
	</g>
</g>
<g transform="translate(3900, 300)">
	<g>
		<defs>
			<rect id="SVGID_00000147180644735002950590000000852496434773549706_" x="-3112.5" y="-243.8" width="48" height="48"/>
		</defs>
		<clipPath id="SVGID_00000070809042378935276540000017619523079663801478_">
			<use xlink:href="#SVGID_00000147180644735002950590000000852496434773549706_"  style="overflow:visible;"/>
		</clipPath>
		<g style="clip-path:url(#SVGID_00000070809042378935276540000017619523079663801478_);">
			<path class="st91" d="M-3075.8-243.8h-25.5c-6.2,0-11.2,5-11.2,11.2v25.5c0,6.2,5,11.2,11.2,11.2h25.5c6.2,0,11.2-5,11.2-11.2
				v-25.5C-3064.5-238.7-3069.5-243.8-3075.8-243.8z"/>
		</g>
	</g>
</g>
<g>
	<defs>
		<rect id="SVGID_00000165209543746308733530000000327464677854604200_" x="785.6" y="53.4" width="53.8" height="53.8"/>
	</defs>
	<clipPath id="SVGID_00000121266874157158076650000017665784516700504961_">
		<use xlink:href="#SVGID_00000165209543746308733530000000327464677854604200_"  style="overflow:visible;"/>
	</clipPath>
	<g style="clip-path:url(#SVGID_00000121266874157158076650000017665784516700504961_);">
		<path class="st1" d="M812.5,61.5c-7.7,0-14,6.2-14,14c0,0.2,0,0.3,0,0.5v13.4v0v1.4c0,0,0,0,0,0V94c0,0,0,0.1,0,0.1
			c0,0,0,0.1,0,0.1v0.1h0c0.1,2.6,2.2,4.7,4.8,4.7c2.6,0,4.8-2.1,4.8-4.7v-5h4c0.1,0,0.2,0,0.3,0c7.7,0,14-6.2,14-13.9
			C826.5,67.7,820.2,61.5,812.5,61.5L812.5,61.5z M812.5,79.6c-0.9,0-3,0-3.9,0h-0.4v-4.2c0-2.4,1.9-4.3,4.3-4.3
			c2.4,0,4.3,1.9,4.3,4.3C816.8,77.8,814.9,79.6,812.5,79.6L812.5,79.6z"/>
		<g>
			<path class="st93" d="M803.2,89.3h4.9v4.9h0c-0.1,2.6-2.2,4.7-4.8,4.7s-4.7-2.1-4.8-4.7h0v-0.1c0,0,0-0.1,0-0.1c0,0,0-0.1,0-0.1
				v-0.3C798.7,91.3,800.9,89.3,803.2,89.3L803.2,89.3z"/>
			<g>
				<g class="st94">
					<path class="st95" d="M798.5,83.3v6c0-5.2,4.4-9.6,9.6-9.6v-1.9C804.3,78.2,800.8,80.2,798.5,83.3z"/>
					<path class="st96" d="M798.5,93.8c1.1-0.8,2.5-1.3,4-1.3h5.6v-3.2h-4.8C800.8,89.3,798.7,91.2,798.5,93.8L798.5,93.8z"/>
				</g>
				<g class="st94">
					<path class="st95" d="M808.2,79.6v-1.7c-3.9,0.4-7.4,2.5-9.6,5.7v5.7C798.5,84,802.9,79.7,808.2,79.6z"/>
					<path class="st96" d="M803.4,89.3c-2.5,0-4.5,1.9-4.8,4.3c1.1-0.9,2.5-1.4,4.1-1.4h5.6v-2.9L803.4,89.3L803.4,89.3z"/>
				</g>
				<g class="st94">
					<path class="st95" d="M808.2,79.6v-1.6c-4,0.4-7.4,2.5-9.6,5.8v5.4C798.5,84,802.9,79.7,808.2,79.6L808.2,79.6z"/>
					<path class="st96" d="M803.4,89.3c-2.4,0-4.4,1.8-4.8,4.1c1.1-0.9,2.6-1.5,4.1-1.5h5.5v-2.6H803.4L803.4,89.3z"/>
				</g>
				<g class="st94">
					<path class="st95" d="M808.2,79.6v-1.4c-4,0.3-7.5,2.6-9.6,5.9v5.1C798.5,84,802.9,79.7,808.2,79.6z"/>
					<path class="st96" d="M803.4,89.3c-2.3,0-4.3,1.7-4.7,3.9c1.1-1,2.6-1.6,4.1-1.6h5.4v-2.3H803.4z"/>
				</g>
				<g class="st94">
					<path class="st95" d="M808.2,79.6v-1.2c-4,0.3-7.6,2.6-9.6,6v4.8C798.5,84,802.9,79.7,808.2,79.6L808.2,79.6z"/>
					<path class="st96" d="M803.4,89.3c-2.3,0-4.2,1.6-4.7,3.7c1.1-1,2.6-1.7,4.2-1.7h5.3v-2L803.4,89.3L803.4,89.3z"/>
				</g>
				<g class="st94">
					<path class="st95" d="M808.2,79.6v-1c-4.1,0.3-7.7,2.7-9.6,6.1v4.5C798.5,84,802.9,79.7,808.2,79.6z"/>
					<path class="st96" d="M803.4,89.3c-2.2,0-4.1,1.5-4.6,3.5c1.1-1.1,2.6-1.8,4.2-1.8h5.3v-1.7H803.4z"/>
				</g>
				<g class="st94">
					<path class="st95" d="M808.2,79.6v-0.8c-4.2,0.2-7.8,2.7-9.6,6.3v4.2C798.5,84,802.9,79.7,808.2,79.6z"/>
					<path class="st96" d="M803.4,89.3c-2.1,0-3.9,1.4-4.6,3.3c1.1-1.1,2.6-1.8,4.2-1.8h5.2v-1.4H803.4L803.4,89.3z"/>
				</g>
				<g class="st94">
					<path class="st95" d="M808.2,79.6V79c-4.2,0.2-7.9,2.8-9.6,6.5v3.8C798.5,84,802.9,79.7,808.2,79.6L808.2,79.6z"/>
					<path class="st96" d="M803.4,89.3c-2.1,0-3.8,1.3-4.5,3.1c1-1.2,2.5-1.9,4.2-1.9h5.1v-1.1H803.4z"/>
				</g>
				<g class="st94">
					<path class="st95" d="M808.2,79.6v-0.5c-4.3,0.2-8.1,2.9-9.6,6.8v3.3C798.5,84,802.9,79.7,808.2,79.6L808.2,79.6z"/>
					<path class="st96" d="M803.4,89.3c-2,0-3.7,1.2-4.4,2.9c1-1.2,2.5-2,4.2-2h5v-0.9H803.4z"/>
				</g>
			</g>
		</g>
	</g>
</g>
</svg>
